<svg width="24" height="24" viewBox="0 0 24 24" fill="none" xmlns="http://www.w3.org/2000/svg">
<g clip-path="url(#clip0_4025_2801)">
<path d="M17.9999 4.00098H5.99988C4.34302 4.00098 2.99988 5.34412 2.99988 7.00098V17.001C2.99988 18.6578 4.34302 20.001 5.99988 20.001H17.9999C19.6567 20.001 20.9999 18.6578 20.9999 17.001V7.00098C20.9999 5.34412 19.6567 4.00098 17.9999 4.00098Z" stroke="#262626" stroke-width="1.50341" stroke-linecap="round" stroke-linejoin="round"/>
<path d="M7.19995 7.7998H9.19995" stroke="#262626" stroke-width="1.50341" stroke-linecap="round" stroke-linejoin="round"/>
<path d="M7.19995 11.7998H9.19995" stroke="#262626" stroke-width="1.50341" stroke-linecap="round" stroke-linejoin="round"/>
<path d="M7.19995 16H17.2" stroke="#262626" stroke-width="1.50341" stroke-linecap="round" stroke-linejoin="round"/>
<path d="M12.674 12.7798V11.6278C12.674 11.3754 12.7124 11.156 12.7892 10.9695C12.8715 10.783 13.0032 10.6184 13.1842 10.4758C13.3707 10.3276 13.6148 10.1878 13.9165 10.0561L14.9369 9.60353C15.1892 9.48833 15.3812 9.34844 15.5129 9.18387C15.65 9.01381 15.7186 8.79713 15.7186 8.53381C15.7186 8.24307 15.6308 8.01267 15.4553 7.84261C15.2852 7.66707 15.0411 7.5793 14.7229 7.5793C14.4048 7.5793 14.1579 7.66707 13.9824 7.84261C13.8123 8.01815 13.7273 8.26227 13.7273 8.57495H12.6C12.6 8.20193 12.6795 7.8673 12.8386 7.57107C12.9977 7.26935 13.2336 7.03347 13.5463 6.86341C13.8589 6.68787 14.2512 6.6001 14.7229 6.6001C15.1947 6.6001 15.5869 6.68513 15.8996 6.85518C16.2123 7.02524 16.4482 7.2529 16.6073 7.53815C16.7664 7.81793 16.8459 8.13061 16.8459 8.47621V8.58318C16.8459 9.03301 16.7197 9.40878 16.4674 9.7105C16.2151 10.0067 15.8448 10.2646 15.3565 10.484L14.3362 10.9366C14.1442 11.0188 14.0098 11.1066 13.933 11.1999C13.8562 11.2876 13.8178 11.4083 13.8178 11.5619V12.0886L13.538 11.7841H16.8706V12.7798H12.674Z" fill="#262626"/>
</g>
<defs>
<clipPath id="clip0_4025_2801">
<rect width="24" height="24" fill="white"/>
</clipPath>
</defs>
</svg>
