<svg width="32" height="32" viewBox="0 0 33 32" fill="none" xmlns="http://www.w3.org/2000/svg"><path d="M20.7334 20.3333H24.7937M27.5 24.3333V7.66667C27.5 6.19391 26.2884 5 24.7937 5H16.4942C15.7462 5 15.0315 5.30509 14.5199 5.84282L6.232 14.5538C5.57601 15.2433 5.33939 16.2234 5.61002 17.1301L7.98468 25.0858C8.32343 26.2207 9.38047 27 10.581 27H24.7937C26.2884 27 27.5 25.8061 27.5 24.3333ZM24.7937 9.66667V15C24.7937 15.7364 24.1879 16.3333 23.4406 16.3333H12.9852C11.8078 16.3333 11.1921 14.9542 11.9877 14.099L16.9492 8.7657C17.2055 8.4902 17.5674 8.33333 17.9467 8.33333H23.4406C24.1879 8.33333 24.7937 8.93029 24.7937 9.66667Z" stroke="#232323" stroke-width="2" stroke-linecap="round"></path></svg>