<svg width="24" height="24" viewBox="0 0 24 24" fill="none" xmlns="http://www.w3.org/2000/svg">
<path d="M5.99969 18.3211C6.94646 18.3211 7.71397 17.5536 7.71397 16.6069C7.71397 15.6601 6.94646 14.8926 5.99969 14.8926C5.05291 14.8926 4.2854 15.6601 4.2854 16.6069C4.2854 17.5536 5.05291 18.3211 5.99969 18.3211Z" stroke="#262626" stroke-width="1.5" stroke-linecap="round" stroke-linejoin="round"/>
<path d="M18.4285 18.3211C19.3753 18.3211 20.1428 17.5536 20.1428 16.6069C20.1428 15.6601 19.3753 14.8926 18.4285 14.8926C17.4817 14.8926 16.7142 15.6601 16.7142 16.6069C16.7142 17.5536 17.4817 18.3211 18.4285 18.3211Z" stroke="#262626" stroke-width="1.5" stroke-linecap="round" stroke-linejoin="round"/>
<path d="M4.29123 16.6278H3.0075C2.43905 16.6278 1.93795 16.2541 1.84434 15.6935C1.71945 14.9454 1.6253 13.8588 1.86399 12.8541C2.28234 11.0932 4.79211 9.33224 7.46438 9.33252C9.54908 9.33274 11.8325 9.33262 12.7358 9.33255C12.9962 9.33253 13.2503 9.41148 13.4649 9.55897L17.2674 12.1723C17.4385 12.2899 17.6354 12.3643 17.8415 12.3893L20.7185 12.7385C21.2838 12.8071 21.7368 13.2388 21.8325 13.8001L22.0583 15.1239C22.1924 15.9101 21.5868 16.6278 20.7893 16.6278H20.1692M16.9507 16.6278H7.46438" stroke="#262626" stroke-width="1.5"/>
</svg>
