<svg width="983" height="832" viewBox="0 0 983 832" fill="none" xmlns="http://www.w3.org/2000/svg">
<path d="M525.751 116.782C558.361 92.6923 604.273 83.4574 640.197 102.251C599.755 119.81 566.827 151.109 547.24 190.608C539.741 205.869 532.99 223.624 517.518 230.677C507.891 235.066 496.529 234.218 486.561 230.674C476.592 227.13 467.724 221.11 458.98 215.153L456.357 214.838C471.919 177.4 493.14 140.872 525.751 116.782Z" fill="#F0F0F0"/>
<path d="M639.908 103.051C606.366 104.102 574.008 115.695 547.43 136.183C541.63 140.492 536.545 145.689 532.364 151.581C528.475 157.452 526.231 164.258 525.862 171.291C525.387 177.841 525.659 184.596 523.6 190.917C522.498 194.137 520.728 197.087 518.405 199.575C516.083 202.062 513.261 204.031 510.124 205.351C502.395 208.845 493.871 209.353 485.517 209.56C476.243 209.789 466.606 209.881 458.172 214.248C457.15 214.777 456.388 213.161 457.409 212.632C472.083 205.035 489.232 209.992 504.655 205.47C511.852 203.36 518.457 199.068 521.347 191.888C523.874 185.609 523.599 178.642 524.023 172.006C524.281 165.14 526.218 158.442 529.662 152.497C533.53 146.411 538.406 141.027 544.08 136.577C556.696 126.354 570.84 118.178 585.995 112.349C603.255 105.6 621.542 101.853 640.065 101.271C641.211 101.235 641.047 103.016 639.908 103.051Z" fill="white"/>
<path d="M555.598 129.082C552.766 124.156 551.777 118.384 552.808 112.796C553.839 107.209 556.822 102.169 561.226 98.5785C562.119 97.855 563.285 99.2094 562.391 99.9339C558.284 103.27 555.505 107.965 554.556 113.17C553.607 118.375 554.549 123.748 557.214 128.319C557.792 129.313 556.172 130.071 555.598 129.082Z" fill="white"/>
<path d="M525.665 167.937C536.851 171.064 548.805 169.86 559.143 164.564C560.167 164.039 560.928 165.655 559.906 166.18C549.138 171.671 536.695 172.899 525.062 169.619C523.953 169.306 524.562 167.626 525.665 167.937Z" fill="white"/>
<path d="M603.171 107.968C603.869 110.102 605.087 112.029 606.715 113.576C608.342 115.124 610.329 116.243 612.496 116.832C613.608 117.132 612.997 118.812 611.892 118.514C609.501 117.852 607.309 116.613 605.507 114.908C603.705 113.202 602.348 111.081 601.555 108.73C601.461 108.515 601.453 108.272 601.533 108.051C601.612 107.83 601.772 107.648 601.981 107.541C602.196 107.441 602.441 107.43 602.664 107.51C602.886 107.59 603.069 107.754 603.171 107.968Z" fill="white"/>
<path d="M668.681 236.535C667.981 236.368 667.282 236.201 666.571 236.044C657.152 233.847 647.57 232.419 637.921 231.774C637.175 231.712 636.419 231.661 635.673 231.621C612.408 230.314 589.102 233.338 566.941 240.54C558.125 243.413 549.541 246.954 541.262 251.13C529.829 256.898 517.891 264.061 505.583 265.668C504.301 265.85 503.008 265.953 501.713 265.975L456.177 218.062C456.128 217.901 456.068 217.75 456.019 217.589L454.113 215.759C454.525 215.513 454.958 215.268 455.37 215.023C455.608 214.88 455.857 214.747 456.095 214.604C456.257 214.512 456.42 214.42 456.561 214.328C456.615 214.297 456.669 214.266 456.712 214.246C456.853 214.154 456.994 214.083 457.124 214.001C459.538 212.622 461.965 211.258 464.407 209.908C464.418 209.898 464.418 209.898 464.439 209.898C483.069 199.662 502.717 190.892 523.072 185.383C523.684 185.217 524.307 185.041 524.94 184.897C534.129 182.464 543.501 180.787 552.963 179.882C558.146 179.402 563.349 179.186 568.554 179.233C582.001 179.38 595.342 181.642 608.087 185.935C633.492 194.496 655.877 211.088 667.789 234.721C668.093 235.325 668.388 235.92 668.681 236.535Z" fill="#F0F0F0"/>
<path d="M667.967 237.005C640.553 217.65 607.737 207.424 574.181 207.781C566.956 207.73 559.768 208.817 552.881 211.004C546.241 213.352 540.351 217.434 535.823 222.827C531.5 227.771 527.65 233.329 522.201 237.136C519.382 239.043 516.192 240.333 512.84 240.921C509.488 241.509 506.05 241.382 502.751 240.548C494.475 238.683 487.364 233.957 480.57 229.093C473.026 223.692 465.276 217.963 455.913 216.372C454.778 216.179 455.144 214.43 456.276 214.623C472.568 217.391 483.275 231.674 498.313 237.35C505.33 239.998 513.187 240.548 519.817 236.554C525.615 233.062 529.59 227.334 533.924 222.291C538.264 216.965 543.843 212.782 550.172 210.109C556.925 207.579 564.059 206.216 571.27 206.079C587.497 205.512 603.713 207.5 619.323 211.97C637.168 216.973 654.024 224.991 669.164 235.678C670.101 236.34 668.898 237.663 667.967 237.005Z" fill="white"/>
<path d="M584.982 207.03C585.687 201.392 588.372 196.188 592.56 192.347C596.747 188.507 602.163 186.279 607.841 186.063C608.99 186.023 609.106 187.807 607.955 187.847C602.668 188.038 597.623 190.114 593.731 193.698C589.839 197.283 587.356 202.14 586.732 207.394C586.595 208.536 584.846 208.166 584.982 207.03Z" fill="white"/>
<path d="M537.688 220.032C544.738 229.263 555.007 235.499 566.45 237.495C567.583 237.692 567.218 239.441 566.086 239.244C554.182 237.145 543.508 230.634 536.194 221.012C535.497 220.094 536.996 219.119 537.688 220.032Z" fill="white"/>
<path d="M635.676 218.812C634.949 220.936 634.761 223.208 635.129 225.424C635.497 227.639 636.409 229.728 637.784 231.504C638.492 232.412 636.993 233.386 636.29 232.484C634.78 230.515 633.775 228.206 633.363 225.76C632.951 223.313 633.145 220.803 633.927 218.448C633.982 218.22 634.122 218.021 634.318 217.892C634.514 217.764 634.752 217.715 634.983 217.755C635.215 217.804 635.417 217.943 635.547 218.141C635.677 218.339 635.723 218.58 635.676 218.812Z" fill="white"/>
<path d="M517.147 152.621H513.619V55.9503C513.619 48.6028 512.172 41.3273 509.36 34.5391C506.548 27.7509 502.427 21.583 497.231 16.3875C492.036 11.192 485.868 7.07075 479.08 4.25898C472.291 1.44721 465.016 3.96107e-06 457.668 1.30089e-10H252.859C245.511 -1.58436e-05 238.236 1.44716 231.447 4.25891C224.659 7.07066 218.491 11.1919 213.296 16.3874C208.1 21.5828 203.979 27.7507 201.167 34.5389C198.355 41.3271 196.908 48.6027 196.908 55.9502V586.293C196.908 601.132 202.803 615.363 213.296 625.856C223.788 636.348 238.02 642.243 252.858 642.243H457.668C472.507 642.243 486.738 636.348 497.231 625.856C507.724 615.363 513.619 601.132 513.619 586.293V221.433H517.147V152.621Z" fill="#3F3D56"/>
<path d="M459.925 14.5562H433.19C434.42 17.5704 434.889 20.8407 434.557 24.079C434.225 27.3173 433.101 30.4242 431.286 33.1261C429.47 35.8279 427.017 38.0418 424.145 39.5726C421.272 41.1034 418.066 41.9042 414.811 41.9044H297.478C294.223 41.9042 291.018 41.1034 288.145 39.5726C285.272 38.0418 282.819 35.828 281.004 33.1261C279.188 30.4243 278.064 27.3173 277.732 24.079C277.4 20.8407 277.869 17.5704 279.099 14.5562H254.129C243.047 14.5561 232.42 18.9583 224.584 26.7941C216.748 34.63 212.346 45.2576 212.346 56.3392V585.903C212.346 591.39 213.426 596.824 215.526 601.893C217.626 606.963 220.704 611.569 224.584 615.449C228.464 619.329 233.07 622.406 238.139 624.506C243.208 626.606 248.642 627.687 254.129 627.687H459.925C465.412 627.687 470.845 626.606 475.915 624.506C480.984 622.406 485.59 619.329 489.47 615.449C493.35 611.569 496.428 606.963 498.527 601.893C500.627 596.824 501.708 591.391 501.708 585.904V56.3391C501.708 45.2576 497.306 34.6299 489.47 26.7941C481.634 18.9583 471.006 14.5562 459.925 14.5562Z" fill="white"/>
<path d="M360.981 457.57C345.827 457.584 330.818 454.61 316.814 448.817C302.811 443.024 290.087 434.527 279.371 423.811C268.655 413.095 260.158 400.371 254.365 386.367C248.572 372.364 245.597 357.355 245.611 342.2C245.59 320.92 251.463 300.05 262.579 281.905C273.695 263.759 289.62 249.046 308.587 239.399C322.336 232.404 337.346 228.231 352.733 227.127C368.12 226.023 383.572 228.009 398.179 232.969C424.048 241.785 445.948 259.496 459.979 282.95C474.009 306.403 479.259 334.076 474.794 361.039C470.329 388.001 456.438 412.504 435.595 430.182C414.752 447.86 388.311 457.565 360.981 457.57ZM360.981 231.355C343.479 231.303 326.219 235.443 310.644 243.429C297.031 250.364 284.998 260.04 275.301 271.847C265.604 283.655 258.453 297.339 254.297 312.042C250.14 326.744 249.068 342.147 251.148 357.284C253.227 372.42 258.413 386.964 266.38 400.001C274.348 413.038 284.924 424.287 297.446 433.042C309.967 441.797 324.163 447.869 339.143 450.877C354.123 453.885 369.563 453.763 384.493 450.52C399.424 447.277 413.523 440.982 425.905 432.031C431.892 427.712 437.427 422.8 442.429 417.37C457.056 401.544 466.751 381.796 470.326 360.544C473.901 339.292 471.202 317.459 462.558 297.718C453.914 277.977 439.701 261.185 421.66 249.398C403.619 237.611 382.532 231.341 360.981 231.355Z" fill="#F0F0F0"/>
<path d="M110.993 239.814C114.16 240.211 117.201 241.297 119.902 242.997C122.604 244.696 124.9 246.968 126.628 249.651C128.357 252.333 129.476 255.363 129.908 258.525C130.339 261.687 130.072 264.906 129.125 267.953L167.456 299.883L153.734 327.909L100.236 282.059C95.2214 280.128 91.089 276.425 88.622 271.652C86.155 266.878 85.5247 261.365 86.8506 256.158C88.1766 250.951 91.3666 246.411 95.8161 243.399C100.266 240.386 105.666 239.111 110.993 239.814Z" fill="#FFB6B6"/>
<path d="M468.992 372.966C468.223 364.702 465.045 349.846 462.348 344.353C454.058 322.655 400.493 304.821 393.3 302.522L391.476 282.238L317.05 274.23L307.609 300.17L280.916 310.184C279.104 310.86 277.464 311.928 276.113 313.312C274.763 314.697 273.735 316.363 273.104 318.192L249.156 325.114L225.524 331.946L143.423 274.095L139.546 276.628L113.638 293.534L109.641 296.143L215.887 391.998L255.354 382.738L285.033 375.756L287.567 386.041L281.007 422.175C300.012 441.188 325.17 452.807 351.967 454.949C378.765 457.091 405.448 449.615 427.233 433.863L444.093 418.903C455.844 406.197 464.517 390.96 469.444 374.369L468.992 372.966Z" fill="#0A053A"/>
<path d="M377.646 257.641C405.741 248.339 420.976 218.023 411.674 189.928C402.372 161.833 372.056 146.598 343.961 155.9C315.866 165.202 300.631 195.518 309.933 223.613C319.235 251.709 349.551 266.944 377.646 257.641Z" fill="#FFB6B6"/>
<path d="M318.476 145.681C323.685 138.241 331.503 133.034 340.376 131.093C349.148 129.289 358.279 130.964 365.84 135.764C374.062 132.452 382.927 130.255 391.637 131.372C400.347 132.489 408.884 137.354 412.914 145.369C413.761 147.445 414.79 149.443 415.988 151.339C419.539 156.076 426.137 156.691 431.964 156.918C429.018 158.637 426.072 160.355 423.124 162.073C426.061 163.441 428.998 164.81 431.935 166.178C427.938 167.704 423.941 169.23 419.944 170.756C429.247 178.933 431.497 193.486 427.974 205.688C424.64 217.24 416.994 226.964 408.456 235.29C406.79 229.077 408.622 222.342 409.843 215.911C411.131 209.115 411.338 201.169 406.58 196.371C403.37 193.135 398.661 192.157 394.222 191.372C371.828 187.412 349.227 184.728 326.529 183.334C323.491 182.915 320.396 183.231 317.506 184.256C311.982 186.71 309.763 193.451 308.162 199.429C307.395 188.937 308.008 178.39 309.984 168.058C311.498 160.15 313.884 152.235 318.476 145.681Z" fill="#2F2E41"/>
<path d="M388.129 511.926H324.789C322.589 511.926 320.479 511.052 318.924 509.496C317.368 507.941 316.494 505.831 316.494 503.631C316.494 501.431 317.368 499.321 318.924 497.766C320.479 496.21 322.589 495.336 324.789 495.336H388.129C390.329 495.336 392.439 496.21 393.994 497.766C395.55 499.321 396.424 501.431 396.424 503.631C396.424 505.831 395.55 507.941 393.994 509.496C392.439 511.052 390.329 511.926 388.129 511.926Z" fill="#6C63FF"/>
<path d="M180.281 68.0534H6.05794C4.45248 68.0509 2.9136 67.4113 1.77926 66.2752C0.644923 65.1391 0.0078125 63.5992 0.0078125 61.9937C0.0078125 60.3883 0.644923 58.8484 1.77926 57.7123C2.9136 56.5762 4.45248 55.9366 6.05794 55.9341H180.281C181.888 55.9341 183.429 56.5725 184.566 57.7089C185.702 58.8453 186.341 60.3866 186.341 61.9937C186.341 63.6009 185.702 65.1422 184.566 66.2786C183.429 67.415 181.888 68.0534 180.281 68.0534Z" fill="#6C63FF"/>
<path d="M280.873 106.756H6.05929C4.45227 106.756 2.91106 106.117 1.77472 104.981C0.63838 103.845 0 102.304 0 100.696C0 99.0895 0.63838 97.5483 1.77472 96.4119C2.91106 95.2756 4.45227 94.6372 6.05929 94.6372H280.873C282.48 94.6372 284.021 95.2756 285.158 96.4119C286.294 97.5483 286.932 99.0895 286.932 100.696C286.932 102.304 286.294 103.845 285.158 104.981C284.021 106.117 282.48 106.756 280.873 106.756Z" fill="#6C63FF"/>
<path d="M228.063 143.217H6.05929C4.45227 143.217 2.91106 142.579 1.77472 141.442C0.638381 140.306 0 138.765 0 137.158C0 135.551 0.638381 134.01 1.77472 132.873C2.91106 131.737 4.45227 131.099 6.05929 131.099H228.063C229.67 131.099 231.211 131.737 232.347 132.873C233.484 134.01 234.122 135.551 234.122 137.158C234.122 138.765 233.484 140.306 232.347 141.442C231.211 142.579 229.67 143.217 228.063 143.217Z" fill="#CACACA"/>
<path d="M131.245 179.545H6.05929C4.45227 179.545 2.91105 178.907 1.77472 177.771C0.638381 176.634 0 175.093 0 173.486C0 171.879 0.638381 170.338 1.77472 169.201C2.91105 168.065 4.45227 167.427 6.05929 167.427H131.245C132.852 167.427 134.394 168.065 135.53 169.201C136.666 170.338 137.305 171.879 137.305 173.486C137.305 175.093 136.666 176.634 135.53 177.771C134.394 178.907 132.852 179.545 131.245 179.545Z" fill="#CACACA"/>
<path d="M200.399 215.87H6.05753C4.45216 215.868 2.91344 215.228 1.77917 214.092C0.644898 212.956 0.0078125 211.416 0.0078125 209.811C0.0078125 208.205 0.644898 206.666 1.77917 205.53C2.91344 204.393 4.45216 203.754 6.05753 203.751H200.399C202.005 203.754 203.543 204.393 204.678 205.53C205.812 206.666 206.449 208.205 206.449 209.811C206.449 211.416 205.812 212.956 204.678 214.092C203.543 215.228 202.005 215.868 200.399 215.87Z" fill="#CACACA"/>
<path d="M748.108 808.686L732.493 808.684L725.064 748.454L748.111 748.455L748.108 808.686Z" fill="#FFC5CE"/>
<path d="M754.255 830.296L694.639 830.293V829.539C694.639 823.385 697.084 817.483 701.436 813.132C705.787 808.78 711.689 806.336 717.843 806.335H717.845L728.734 798.074L749.052 806.336L754.256 806.337L754.255 830.296Z" fill="#2F2E41"/>
<path d="M739.012 525.614L732.125 441.644L726.715 410.126L757.006 403.437L767.058 446.586L758.301 527.944C760.067 530.108 761.146 532.752 761.399 535.534C761.651 538.317 761.066 541.112 759.719 543.559C758.371 546.007 756.322 547.995 753.836 549.27C751.35 550.544 748.539 551.046 745.765 550.711C742.991 550.376 740.381 549.219 738.27 547.389C736.158 545.559 734.642 543.14 733.916 540.442C733.19 537.744 733.288 534.89 734.196 532.248C735.104 529.606 736.781 527.295 739.012 525.614Z" fill="#FFC5CE"/>
<path d="M665.163 808.686L649.548 808.684L642.119 748.454L665.166 748.455L665.163 808.686Z" fill="#FFC5CE"/>
<path d="M640.175 544.649L633.252 556.624C633.252 556.624 625.646 558.701 628.132 583.496C630.618 608.291 630.725 755.193 642.758 773.27L644.935 788.793L667.657 790.964L668.23 777.191L695.324 585.836C695.324 585.836 711.281 773.685 724.481 778.282L729.249 793.932L750.072 793.941L748.843 775.498L750.185 542.708L640.175 544.649Z" fill="#2F2E41"/>
<path d="M632.563 555.711L632.084 555.588C646.372 502.147 642.25 432.944 632.162 358.635L632.162 358.327L668.633 324.921H700.304L731.699 345.183C751.996 355.331 756.609 376.821 756.653 377.038L756.684 377.191L744.248 420.6L753.617 546.139L753.628 546.285L753.574 546.42C750.542 554.108 742.417 553.014 733.009 551.745C723.618 550.479 689.009 562.058 678.397 562.058C657.658 562.058 634.045 556.091 632.563 555.711Z" fill="#2F4EDA"/>
<path d="M725.126 362.102L738.731 356.184L756.656 378.161L771.185 448.586L721.418 441.045L725.126 362.102Z" fill="#2F4EDA"/>
<path d="M515.862 491.967L578.058 435.133L599.673 411.566L623.502 431.429L595.527 465.785L525.823 508.647C525.192 511.369 523.762 513.84 521.716 515.743C519.67 517.645 517.101 518.893 514.341 519.325C511.581 519.757 508.754 519.354 506.225 518.167C503.695 516.981 501.578 515.065 500.146 512.666C498.713 510.267 498.031 507.495 498.186 504.705C498.341 501.916 499.326 499.236 501.016 497.011C502.705 494.785 505.022 493.116 507.667 492.217C510.313 491.318 513.167 491.231 515.862 491.967Z" fill="#FFB6B6"/>
<path d="M576.701 435.751L593.927 413.381C594.07 413.06 608.362 381.123 620.75 367.246C633.458 353.012 643.462 360.291 643.562 360.37L643.811 360.557L644.502 413.124L596.804 470.119L576.701 435.751Z" fill="#2F4EDA"/>
<path d="M709.982 293.457C712.551 277.63 701.803 262.717 685.976 260.149C670.149 257.581 655.236 268.329 652.668 284.156C650.1 299.983 660.848 314.895 676.675 317.463C692.502 320.032 707.414 309.284 709.982 293.457Z" fill="#FFC5CE"/>
<path d="M654.785 284.496C654.785 284.496 654.553 274.289 653.262 269.773C651.972 265.257 649.391 261.386 650.682 261.386C651.972 261.386 652.617 258.16 652.617 258.16C652.617 258.16 653.908 257.515 654.553 258.16C655.198 258.805 655.843 253.644 655.843 253.644C655.843 253.644 656.488 251.709 657.133 252.999C657.778 254.289 657.778 253.644 658.424 251.709C659.069 249.773 662.295 248.483 662.295 248.483C662.295 248.483 674.553 249.128 676.488 246.547C678.424 243.967 700.359 245.902 704.875 249.128C709.391 252.354 729.391 263.967 726.165 273.644C722.939 283.321 713.654 305.603 711.327 307.837C707.647 311.37 705.1 312.644 687.688 316.108C684.281 316.786 666.888 305.663 666.888 303.728C666.888 301.792 668.985 295.654 665.615 294.812C660.52 293.538 659.947 299.979 658.656 298.044C657.366 296.108 654.785 284.496 654.785 284.496Z" fill="#2F2E41"/>
<path d="M671.308 830.296L611.691 830.293V829.539C611.692 823.385 614.137 817.483 618.488 813.132C622.84 808.78 628.742 806.336 634.896 806.335H634.897L645.787 798.074L666.105 806.336L671.309 806.337L671.308 830.296Z" fill="#2F2E41"/>
<path d="M981.205 831.433H5.01832C4.54207 831.433 4.08537 831.244 3.74861 830.907C3.41186 830.57 3.22266 830.114 3.22266 829.637C3.22266 829.161 3.41186 828.704 3.74861 828.368C4.08537 828.031 4.54207 827.842 5.01832 827.842H981.205C981.681 827.842 982.138 828.031 982.474 828.368C982.811 828.704 983 829.161 983 829.637C983 830.114 982.811 830.57 982.474 830.907C982.138 831.244 981.681 831.433 981.205 831.433Z" fill="#CACACA"/>
</svg>
