<svg width="1120" height="831" viewBox="0 0 1120 831" fill="none" xmlns="http://www.w3.org/2000/svg">
<g clip-path="url(#clip0_568_126)">
<path d="M1113.09 51.6264H399.088C397.52 51.592 396.277 50.3 396.311 48.7406C396.345 47.2297 397.568 46.0129 399.088 45.9795H1113.09C1114.66 46.0139 1115.91 47.306 1115.87 48.8653C1115.84 50.3762 1114.61 51.5931 1113.09 51.6264Z" fill="#E6E6E6"/>
<path d="M524.832 341.774H812.898C813.63 341.774 814.224 342.365 814.224 343.093V509.654C814.224 510.382 813.63 510.972 812.898 510.972H524.832V341.774Z" fill="#E6E6E6"/>
<path d="M812.558 511.873L524.451 343.052L525.21 340.497L813.317 509.318C814.027 509.526 814.432 510.267 814.223 510.973C814.013 511.678 813.268 512.081 812.558 511.873Z" fill="white"/>
<path d="M525.21 512.25L524.451 509.695L812.558 340.874C813.268 340.666 814.013 341.069 814.223 341.774C814.432 342.48 814.027 343.221 813.317 343.429L525.21 512.25Z" fill="white"/>
<path d="M780.181 175.152H558.55C555.086 175.152 552.277 177.945 552.277 181.39V181.39C552.277 184.834 555.086 187.627 558.55 187.627H780.181C783.645 187.627 786.453 184.834 786.453 181.39C786.453 177.945 783.645 175.152 780.181 175.152Z" fill="#E6E6E6"/>
<path d="M809.974 214.09H528.755C525.291 214.09 522.482 216.883 522.482 220.328V220.328C522.482 223.772 525.291 226.565 528.755 226.565H809.974C813.438 226.565 816.247 223.772 816.247 220.328C816.247 216.883 813.438 214.09 809.974 214.09Z" fill="#E6E6E6"/>
<path d="M809.974 253.028H528.755C525.291 253.028 522.482 255.821 522.482 259.266C522.482 262.71 525.291 265.503 528.755 265.503H809.974C813.438 265.503 816.247 262.71 816.247 259.266C816.247 255.821 813.438 253.028 809.974 253.028Z" fill="#2F4EDA"/>
<path d="M1076.65 384.475C1076.62 432.627 1046.02 475.514 1000.33 491.439C999.355 491.785 998.384 492.1 997.403 492.404C937.465 511.459 873.341 478.588 854.18 418.986C835.018 359.383 868.074 295.62 928.013 276.565C987.951 257.511 1052.07 290.382 1071.24 349.984C1074.82 361.134 1076.65 372.769 1076.65 384.475Z" fill="#E6E6E6"/>
<path d="M809.923 268.005C809.465 273.256 813.374 277.883 818.655 278.339C819.219 278.388 819.785 278.387 820.348 278.337L834.378 309.253L843.852 294.356L829.076 267.281C828.247 262.045 823.307 258.469 818.042 259.293C813.637 259.983 810.28 263.584 809.923 268.005Z" fill="#FFB6B6"/>
<path d="M948.193 384.433C947.989 383.519 947.728 382.619 947.413 381.737C945.402 376.055 941.306 371.337 935.946 368.53C935.819 368.457 935.682 368.383 935.556 368.32L871.46 335.98L865.774 324.956L842.799 280.447L837.166 282.115L823.853 286.049L823.547 286.133L845.615 359.981L850.679 363.841L908.033 407.458L909.901 408.885C919.429 416.117 932.843 415.332 941.452 407.038C942.311 406.22 943.105 405.336 943.826 404.395C948.199 398.72 949.8 391.402 948.193 384.433Z" fill="#2F4EDA"/>
<path d="M983.828 465.54L983.49 453.372L982.52 418.084C986.032 395.499 988.522 392.992 971.58 377.551C970.272 377.272 969.142 376.457 968.469 375.307C966.928 372.181 970.631 366.873 967.435 358.701L942.212 360.138L935.946 368.53L910.734 402.307C909.746 403.977 908.845 405.696 908.034 407.458C897.242 430.766 911.873 443.155 913.013 445.284L919.996 467.155L923.847 488.366L925.091 491.313L928.604 492.593C951.014 499.552 975.034 499.486 997.404 492.404C993.639 483.089 989.098 474.103 983.828 465.54Z" fill="#2F4EDA"/>
<path d="M1032.68 551.323C1034.84 546.508 1032.66 540.865 1027.82 538.719C1027.3 538.491 1026.77 538.308 1026.22 538.173L1023.11 504.396L1009.26 515.4L1014.34 545.789C1013.4 551.006 1016.9 555.99 1022.14 556.921C1026.54 557.699 1030.89 555.385 1032.68 551.323Z" fill="#FFB6B6"/>
<path d="M984.438 385.702C980.78 380.199 975.003 376.438 968.467 375.307C967.068 375.055 965.649 374.929 964.227 374.929C959.487 374.93 954.853 376.32 950.903 378.926C949.65 379.748 948.481 380.69 947.412 381.737C937.825 390.97 937.58 406.183 946.865 415.716L946.874 415.724L983.489 453.372L996.834 467.093L1000.33 491.44L1005.69 528.899L1011.56 529.15L1025.44 529.759L1025.76 529.769L1028.07 477.278L1029.14 452.806L984.438 385.702Z" fill="#2F4EDA"/>
<path d="M934.402 301.122C925.485 318.6 931.31 338.844 947.858 349.49C965.751 361.002 988.984 358.482 996.499 336.11C1004.87 311.198 997.992 300.51 983.043 287.742C965.525 272.78 944.037 282.238 934.402 301.122Z" fill="#2F2E41"/>
<path d="M978.299 340.057C968.841 352.384 951.125 354.754 938.727 345.349C926.346 335.956 923.951 318.369 933.374 306.04L933.619 305.72C943.352 293.606 961.117 291.631 973.3 301.31C985.205 310.768 987.414 327.914 978.292 340.051L978.299 340.057Z" fill="#FFB6B6"/>
<path d="M925.762 298.292C930.35 302.634 935.943 305.785 942.046 307.468C943.27 306.06 944.72 304.865 946.338 303.931C945.564 305.533 945.033 307.241 944.763 308.998C947.485 314.616 958.603 318.654 969.229 322.784L983.303 298.085L964.674 287.588C949.706 277.297 932.084 281.69 925.762 298.292Z" fill="#2F2E41"/>
<path d="M993.919 287.773C996.679 286.761 999.767 287.21 1002.12 288.964C1004.39 290.679 1006.22 292.896 1007.48 295.441C1009.75 299.557 1011.39 303.994 1012.33 308.599C1013.13 312.583 1013 317.399 1009.4 319.478C1006.4 321.213 1002.12 320.12 999.359 317.805C996.805 315.376 994.867 312.379 993.705 309.059C992.36 305.882 991.088 302.588 988.697 299.949L991.181 301.102C990.396 298.732 990.03 296.245 990.1 293.75C990.215 291.225 991.669 288.95 993.919 287.773Z" fill="#2F2E41"/>
<path d="M961.698 291.01L981.684 302.271C992.938 308.612 996.891 322.824 990.515 334.015C981.271 350.233 961.142 356.802 944.032 349.184L962.295 333.153L937.52 345.705L932.23 342.724C958.801 337.92 963.926 317.195 961.698 291.01Z" fill="#2F2E41"/>
<path d="M999.453 310.802C1002.82 314.696 1008.08 316.21 1012.83 318.236C1029.86 325.662 1042.09 340.965 1045.54 359.129C1046.85 366.417 1046.68 373.96 1048.75 381.065C1050.81 388.169 1055.92 395.139 1063.25 396.372C1068.21 397.215 1073.18 395.31 1077.85 393.43C1080.41 392.405 1082.98 391.376 1085.54 390.342C1082.87 383.665 1080.19 376.988 1077.53 370.311C1081.81 376.612 1086.8 382.414 1092.39 387.608C1101.59 383.921 1110.79 380.235 1120 376.548C1097.34 376.634 1101.21 354.759 1096.14 332.811C1093.35 320.751 1069.62 312.585 1064.97 301.11C1057.7 283.121 1037.15 274.395 1019.05 281.621C1011.26 284.735 1004.84 290.511 1000.94 297.912C996.286 299.755 996.151 306.957 999.453 310.802Z" fill="#2F2E41"/>
<path d="M341.183 522.101C336.937 516.754 337.854 508.998 343.23 504.776C343.751 504.367 344.304 504 344.884 503.679L338.412 442.537L354.979 436.599L362.131 509.274C365.007 515.447 362.305 522.769 356.098 525.628C350.904 528.02 344.738 526.562 341.183 522.101Z" fill="#FFB6B6"/>
<path d="M332.324 297.937C332.324 297.937 359.219 310.985 359.306 326.325C359.393 341.666 361.621 355.54 359.517 361.476C357.412 367.411 364.865 410.555 361.376 414.828C357.887 419.1 365.075 421.287 361.298 428.599C357.521 435.911 355.849 437.287 357.233 438.95C358.617 440.613 360.65 472.31 360.65 472.31L338.489 475.066L314.914 372.759L332.324 297.937Z" fill="#0A053A"/>
<path d="M204.425 528.312C209.465 523.698 209.79 515.895 205.15 510.883C204.701 510.397 204.213 509.949 203.691 509.541L219.777 450.178L204.358 441.717L185.772 512.362C181.954 518.006 183.461 525.66 189.137 529.457C193.887 532.634 200.207 532.16 204.425 528.312Z" fill="#FFB6B6"/>
<path d="M248.718 308.34C248.718 308.34 220.091 317.009 217.572 332.144C215.054 347.278 210.654 360.63 211.791 366.822C212.928 373.013 198.728 414.448 201.495 419.215C204.263 423.981 196.818 425.013 199.389 432.826C201.959 440.638 203.392 442.26 201.762 443.685C200.131 445.11 193.098 476.092 193.098 476.092L214.545 482.288L254.047 384.957L248.718 308.34Z" fill="#0A053A"/>
<path d="M358.655 793.897L377.749 793.896L386.833 720.66L358.652 720.661L358.655 793.897Z" fill="#FFB6B6"/>
<path d="M384.103 795.606V782.734L379.083 783.039L358.65 784.243L353.92 784.532L350.305 827.642L350.111 829.953H363.669L364.105 827.658L366.074 817.226L371.158 827.658L372.272 829.953H408.217C412.668 829.925 416.267 826.339 416.287 821.912C417.804 814.866 387.912 799.635 384.103 795.606Z" fill="#2F2E41"/>
<path d="M134.957 773.229L151.565 782.599L195.811 723.359L171.3 709.531L134.957 773.229Z" fill="#FFB6B6"/>
<path d="M156.25 787.196L162.626 776.01L158.139 773.811L139.755 764.839L135.494 762.752L114.56 793.231L109.637 800.389L115.205 803.535L121.419 807.05L129.844 797.163L128.908 811.271L158.268 827.851H158.284L160.172 828.91C164.055 831.091 168.98 829.734 171.18 825.876C175.99 820.484 157.557 792.589 156.25 787.196Z" fill="#2F2E41"/>
<path d="M263.898 434.396C221.579 435.908 206.706 607.485 219.629 610.597L159.32 722.361L245.162 760.625L301.604 565.744L311.011 637.46L298.468 751.271L353.954 764.614L392.333 761.888C382.36 626.228 357.461 483.148 336.826 427.803L263.898 434.396Z" fill="#2F2E41"/>
<path d="M244.471 446.426L244.192 447.467C271.242 462.433 289.713 459.231 319.282 450.172L340.868 445.661C345.58 439.552 341.74 433.576 336.52 427.758L349.461 321.917C349.374 308.205 338.124 297.159 324.334 297.245C323.768 297.249 323.201 297.271 322.636 297.313L303.198 282.994L275.525 283.943L257.015 304.275L245.956 308.204L237.364 311.25C235.627 312.806 233.731 314.599 231.914 316.577L245.505 397.007L251.286 421.057C243.537 429.844 239.267 438.42 244.471 446.426Z" fill="#0A053A"/>
<path d="M87.4795 816.669C67.3431 814.285 49.3647 802.991 38.5523 785.931C31.6097 774.735 28.0274 761.439 24.563 748.581C23.5542 744.839 22.5119 740.97 21.408 737.24C18.8545 728.9 21.6597 719.855 28.493 714.395C35.0989 708.889 44.4092 707.933 52.0068 711.982L52.8174 712.409L54.2379 744.157C56.3427 739.904 60.9615 730.296 64.6209 720.701L64.9278 719.898L65.629 720.401C72.9859 725.657 79.648 731.813 85.4582 738.724C106.223 763.826 114.832 796.74 108.999 828.722L108.822 829.663L87.4795 816.669Z" fill="#F2F2F2"/>
<path d="M7.11725e-06 829.431C-0.00257851 830.295 0.699664 830.997 1.56851 831H1118.42C1119.29 831 1120 830.297 1120 829.431C1120 828.564 1119.29 827.862 1118.42 827.862H1.57791C0.709025 827.859 0.00259274 828.558 2.03769e-05 829.422L7.11725e-06 829.431Z" fill="#CCCCCC"/>
<path d="M328.716 264.939L328.743 264.932C331.757 264.139 333.554 261.066 332.756 258.07L324.716 227.783C323.281 222.355 320.763 217.27 317.312 212.83C310.563 204.168 300.713 198.43 289.815 196.812C284.19 195.983 278.455 196.296 272.955 197.73C250.453 203.599 244.168 211 242.898 248.872C241.628 286.744 250.95 279.204 250.95 279.204C251.143 279.934 251.482 280.619 251.947 281.216C252.855 282.38 254.182 283.15 255.648 283.365C256.4 283.474 257.167 283.432 257.902 283.241C286.002 280.365 314.46 277.746 328.721 264.938L328.716 264.939Z" fill="#2F2E41"/>
<path d="M262.649 232.964C258.525 249.517 268.676 266.259 285.322 270.36C293.3 272.325 301.736 271.065 308.781 266.856C315.824 262.678 320.892 255.87 322.855 247.952C326.965 231.396 316.8 214.661 300.151 210.574C292.193 208.621 283.781 209.876 276.75 214.065C269.698 218.237 264.619 225.043 262.649 232.964Z" fill="#FFB6B6"/>
<path d="M335.031 227.712C333.896 223.42 331.904 219.398 329.175 215.886C325.297 206.274 319.215 198.506 307.431 203.222C303.011 202.573 298.505 202.814 294.181 203.931L288.077 205.501C288.008 205.519 287.94 205.536 287.871 205.554C270.122 210.225 259.54 228.319 264.237 245.97L264.398 246.576L277.308 243.243L278.463 229.873L282.591 241.882L289.26 240.162L289.841 233.417L291.924 239.472C304.568 244.356 319.222 239.51 335.187 228.322L335.031 227.712Z" fill="#2F2E41"/>
<path d="M305.412 270.035C305.874 270.961 306.065 271.997 305.964 273.026C305.916 273.552 305.794 274.068 305.602 274.56C305.436 274.979 305.222 275.378 304.963 275.747C304.194 276.839 303.059 277.622 301.762 277.956C301.681 277.977 301.6 277.996 301.518 278.013C301.436 278.031 301.354 278.046 301.271 278.06C301.188 278.074 301.105 278.087 301.021 278.097C300.937 278.107 300.853 278.115 300.767 278.122L295.971 278.497L286.111 266.758L289.368 279.026L267.569 280.763L253.75 228.704L288.68 219.713L288.082 220.936C286.107 225.029 285.305 229.586 285.766 234.103C286.255 238.672 287.528 243.125 289.529 247.267C291.521 251.467 293.913 255.467 296.674 259.212C299.1 262.535 301.717 265.717 304.511 268.74C304.871 269.128 305.174 269.564 305.412 270.035Z" fill="#2F2E41"/>
<path d="M478.352 22.7975C484.545 22.7975 489.565 17.6941 489.565 11.3988C489.565 5.1034 484.545 0 478.352 0C472.159 0 467.139 5.1034 467.139 11.3988C467.139 17.6941 472.159 22.7975 478.352 22.7975Z" fill="#3F3D56"/>
<path d="M517.088 22.7975C523.281 22.7975 528.301 17.6941 528.301 11.3988C528.301 5.1034 523.281 0 517.088 0C510.895 0 505.875 5.1034 505.875 11.3988C505.875 17.6941 510.895 22.7975 517.088 22.7975Z" fill="#3F3D56"/>
<path d="M555.824 22.7975C562.017 22.7975 567.038 17.6941 567.038 11.3988C567.038 5.1034 562.017 0 555.824 0C549.632 0 544.611 5.1034 544.611 11.3988C544.611 17.6941 549.632 22.7975 555.824 22.7975Z" fill="#3F3D56"/>
<path d="M599.994 20.4079C599.649 20.4079 599.305 20.2752 599.046 20.0113L591.48 12.3203C590.975 11.8078 590.975 10.9889 591.48 10.4764L599.046 2.78608C599.559 2.26588 600.4 2.25751 600.921 2.76548C601.445 3.27474 601.454 4.10976 600.942 4.62996L594.283 11.3984L600.942 18.1674C601.454 18.6876 601.445 19.5226 600.921 20.0319C600.663 20.283 600.328 20.4079 599.994 20.4079Z" fill="#3F3D56"/>
<path d="M612.709 20.4079C612.374 20.4079 612.039 20.283 611.782 20.0319C611.258 19.5226 611.249 18.6882 611.761 18.1674L618.419 11.3983L611.761 4.62995C611.249 4.10975 611.258 3.27473 611.782 2.76547C612.304 2.25557 613.145 2.26523 613.657 2.78607L621.222 10.4764C621.726 10.9889 621.726 11.8078 621.222 12.3203L613.657 20.0113C613.397 20.2752 613.053 20.4079 612.709 20.4079Z" fill="#3F3D56"/>
<path d="M1008.52 1.31982H994.453C992.848 1.31982 991.549 2.61196 991.549 4.2074V18.2102C991.549 19.8056 992.848 21.0977 994.453 21.0977H1008.52C1010.13 21.0977 1011.44 19.8056 1011.44 18.2102V4.2074C1011.44 2.61196 1010.13 1.31982 1008.52 1.31982Z" fill="#3F3D56"/>
<path d="M974.045 1.31982H959.976C958.372 1.31982 957.072 2.61196 957.072 4.2074V18.2102C957.072 19.8056 958.372 21.0977 959.976 21.0977H974.045C975.649 21.0977 976.962 19.8056 976.962 18.2102V4.2074C976.962 2.61196 975.649 1.31982 974.045 1.31982Z" fill="#3F3D56"/>
<path d="M1041.01 1.979H1026.94C1025.33 1.979 1024.04 3.27114 1024.04 4.86658V18.8693C1024.04 20.4648 1025.33 21.7569 1026.94 21.7569H1041.01C1042.61 21.7569 1043.92 20.4648 1043.92 18.8693V4.86658C1043.92 3.27114 1042.61 1.979 1041.01 1.979Z" fill="#3F3D56"/>
<path d="M828.956 7.30566H716.501C714.539 7.30566 712.961 8.88791 712.961 10.8262C712.961 12.7645 714.539 14.3466 716.501 14.3466H828.956C830.905 14.3466 832.496 12.7644 832.496 10.8262C832.496 8.88799 830.905 7.30566 828.956 7.30566Z" fill="#3F3D56"/>
</g>
<defs>
<clipPath id="clip0_568_126">
<rect width="1120" height="831" fill="white"/>
</clipPath>
</defs>
</svg>
