<svg width="20" height="20" viewBox="0 0 24 24" fill="none" xmlns="http://www.w3.org/2000/svg"><g clip-path="url(#clip0_4025_2781)"><path d="M3.34591 8.37459C3.13645 7.38442 2.86619 6.13009 2.661 5.1506C2.51518 4.45449 3.00287 3.79458 3.70997 3.71806C4.33017 3.65093 4.90142 4.06154 5.03545 4.67079L5.74011 7.87377C5.88388 8.52727 5.47334 9.17432 4.82086 9.32261C4.15215 9.47459 3.48784 9.04551 3.34591 8.37459Z" stroke="#232323" stroke-width="1.5"></path><path d="M6.7194 19.0616L16.663 17.8778C17.6191 17.7639 18.505 18.3955 18.7091 19.3365V19.3365C18.9616 20.5004 18.0748 21.6001 16.8838 21.6001H9.1194C7.79392 21.6001 6.7194 20.5256 6.7194 19.2001V19.0616ZM6.7194 19.0616L4.38548 11.9823C3.99855 10.8087 4.87268 9.60008 6.10846 9.60009V9.60009C6.82503 9.60009 7.47445 10.0219 7.76585 10.6765L9.93388 15.547C10.5913 17.0239 9.63024 18.7151 8.02503 18.9062L6.7194 19.0616Z" stroke="#232323" stroke-width="1.5"></path><path d="M11.9578 11.1565L10.9925 8.2328C10.2582 6.0085 11.6671 3.65015 13.9737 3.2426C15.9187 2.89895 17.8076 4.08531 18.3426 5.98658L19.1765 8.95041C19.7635 11.0363 18.4779 13.1871 16.3628 13.6579C14.4699 14.0792 12.5658 12.9979 11.9578 11.1565Z" stroke="#232323" stroke-width="1.5"></path></g><defs><clipPath id="clip0_4025_2781"><rect width="24" height="24" fill="white"></rect></clipPath></defs></svg>