<svg width="20" height="20" viewBox="0 0 24 24" fill="none" xmlns="http://www.w3.org/2000/svg"><g clip-path="url(#clip0_1_24981)"><path d="M6.6665 13.3334V10C6.6665 9.11597 7.01769 8.26812 7.64281 7.643C8.26794 7.01788 9.11578 6.66669 9.99984 6.66669C10.8839 6.66669 11.7317 7.01788 12.3569 7.643C12.982 8.26812 13.3332 9.11597 13.3332 10V13.3334" stroke="#232323" stroke-width="1.25" stroke-linecap="round" stroke-linejoin="round"></path><path d="M2.5 10H3.33333M10 2.5V3.33333M16.6667 10H17.5M4.66667 4.66667L5.25 5.25M15.3333 4.66667L14.75 5.25" stroke="#232323" stroke-width="1.25" stroke-linecap="round" stroke-linejoin="round"></path><path d="M14.1667 13.3333H5.83333C5.3731 13.3333 5 13.7064 5 14.1666V15.8333C5 16.2936 5.3731 16.6666 5.83333 16.6666H14.1667C14.6269 16.6666 15 16.2936 15 15.8333V14.1666C15 13.7064 14.6269 13.3333 14.1667 13.3333Z" stroke="#232323" stroke-width="1.25" stroke-linecap="round" stroke-linejoin="round"></path></g><defs><clipPath id="clip0_1_24981"><rect width="20" height="20" fill="white"></rect></clipPath></defs></svg>