<svg width="20" height="20" viewBox="0 0 21 20" fill="none" xmlns="http://www.w3.org/2000/svg"><g clip-path="url(#clip0_1_25016)"><path d="M10.4997 1.66663V7.08329L12.9997 8.51663M8.83301 3.33329L10.4997 4.16663L12.1663 3.33329H8.83301Z" stroke="#232323" stroke-width="1.25" stroke-linecap="round" stroke-linejoin="round"></path><path d="M17.7171 5.83333L13.0262 8.54166L13.0348 11.4234M15.4404 5.22329L15.5521 7.08333L17.1071 8.11004L15.4404 5.22329Z" stroke="#232323" stroke-width="1.25" stroke-linecap="round" stroke-linejoin="round"></path><path d="M17.7165 14.1667L13.0255 11.4584L10.5342 12.9068M17.1064 11.89L15.5514 12.9167L15.4398 14.7767L17.1064 11.89Z" stroke="#232323" stroke-width="1.25" stroke-linecap="round" stroke-linejoin="round"></path><path d="M10.5003 18.3334V12.9167L8.00033 11.4834M12.167 16.6667L10.5003 15.8334L8.83366 16.6667H12.167Z" stroke="#232323" stroke-width="1.25" stroke-linecap="round" stroke-linejoin="round"></path><path d="M3.28288 14.1667L7.97385 11.4583L7.96515 8.57661M5.55959 14.7767L5.44794 12.9167L3.89292 11.89L5.55959 14.7767Z" stroke="#232323" stroke-width="1.25" stroke-linecap="round" stroke-linejoin="round"></path><path d="M3.28353 5.8333L7.9745 8.54163L10.4658 7.09323M3.89357 8.11001L5.44859 7.0833L5.56024 5.22325L3.89357 8.11001Z" stroke="#232323" stroke-width="1.25" stroke-linecap="round" stroke-linejoin="round"></path></g><defs><clipPath id="clip0_1_25016"><rect width="20" height="20" fill="white" transform="translate(0.5)"></rect></clipPath></defs></svg>