<svg width="20" height="20" viewBox="0 0 24 24" fill="none" xmlns="http://www.w3.org/2000/svg"><g clip-path="url(#clip0_502_34705)"><path d="M6.11111 11.7692C6.4058 11.7692 6.68841 11.9009 6.89679 12.1353C7.10516 12.3697 7.22222 12.6876 7.22222 13.0192V13.2692H12.7778V13.0192C12.7778 12.6876 12.8948 12.3697 13.1032 12.1353C13.3116 11.9009 13.5942 11.7692 13.8889 11.7692C14.1836 11.7692 14.4662 11.9009 14.6746 12.1353C14.8829 12.3697 15 12.6876 15 13.0192V14.5192C15 14.8507 14.8829 15.1686 14.6746 15.403C14.4662 15.6375 14.1836 15.7692 13.8889 15.7692H6.11111C5.81643 15.7692 5.53381 15.6375 5.32544 15.403C5.11706 15.1686 5 14.8507 5 14.5192L5 13.0192C5 12.6876 5.11706 12.3697 5.32544 12.1353C5.53381 11.9009 5.81643 11.7692 6.11111 11.7692Z" stroke="#232323" stroke-width="1.25" stroke-linecap="round" stroke-linejoin="round"></path><path d="M6.49951 11.769V7.0651C6.49951 6.58875 6.65755 6.13192 6.93885 5.79509C7.22016 5.45827 7.60169 5.26904 7.99951 5.26904H11.9995C12.3973 5.26904 12.7789 5.45827 13.0602 5.79509C13.3415 6.13192 13.4995 6.58875 13.4995 7.0651V11.769" stroke="#232323" stroke-width="1.25" stroke-linecap="round" stroke-linejoin="round"></path><path d="M8.50049 3.76904V2.68352C8.50049 2.57359 8.56822 2.46817 8.68878 2.39044C8.80934 2.31271 8.97285 2.26904 9.14335 2.26904H10.8576C11.0281 2.26904 11.1916 2.31271 11.3122 2.39044C11.4328 2.46817 11.5005 2.57359 11.5005 2.68352V3.76904" stroke="#232323" stroke-width="1.25" stroke-linecap="round" stroke-linejoin="round"></path><path d="M6.49951 15.769V17.269" stroke="#232323" stroke-width="1.25" stroke-linecap="round" stroke-linejoin="round"></path><path d="M13.5005 15.769V17.269" stroke="#232323" stroke-width="1.25" stroke-linecap="round" stroke-linejoin="round"></path></g><defs><clipPath id="clip0_502_34705"><rect width="20" height="20" fill="white"></rect></clipPath></defs></svg>