<svg width="20" height="20" viewBox="0 0 24 24" fill="none" xmlns="http://www.w3.org/2000/svg"><g clip-path="url(#clip0_502_34699)"><path d="M4.78834 6.97874C4.61379 6.1536 4.38857 5.10833 4.21758 4.29209C4.09606 3.71199 4.50248 3.16207 5.09172 3.0983C5.60855 3.04236 6.0846 3.38454 6.19629 3.89224L6.78351 6.5614C6.90331 7.10598 6.5612 7.64518 6.01747 7.76876C5.4602 7.89541 4.90661 7.53784 4.78834 6.97874Z" stroke="#232323" stroke-width="1.25"></path><path d="M7.59942 15.8846L15.8858 14.8981C16.6825 14.8032 17.4207 15.3295 17.5908 16.1136V16.1136C17.8012 17.0836 17.0623 18 16.0698 18H9.59942C8.49485 18 7.59942 17.1046 7.59942 16V15.8846ZM7.59942 15.8846L5.65448 9.98518C5.33204 9.00714 6.06048 7.99999 7.0903 7.99999V7.99999C7.68744 8 8.22863 8.35148 8.47146 8.89701L10.2782 12.9558C10.826 14.1865 10.0251 15.5958 8.68745 15.7551L7.59942 15.8846Z" stroke="#232323" stroke-width="1.25"></path></g><defs><clipPath id="clip0_502_34699"><rect width="20" height="20" fill="white" transform="matrix(-1 0 0 1 20 0)"></rect></clipPath></defs></svg>