<svg width="20" height="20" viewBox="0 0 24 24" fill="none" xmlns="http://www.w3.org/2000/svg"><g clip-path="url(#clip0_4025_2759)"><path d="M14.6036 18.8C14.2871 18.5729 14.0306 18.2721 13.8564 17.9236C13.6822 17.5752 13.5954 17.1895 13.6036 16.8C13.5954 16.4106 13.6822 16.0249 13.8564 15.6765C14.0306 15.328 14.2871 15.0272 14.6036 14.8C14.92 14.5729 15.1765 14.2721 15.3507 13.9236C15.5249 13.5752 15.6117 13.1895 15.6036 12.8C15.6117 12.4106 15.5249 12.0249 15.3507 11.6765C15.1765 11.328 14.92 11.0272 14.6036 10.8" stroke="#232323" stroke-width="1.5" stroke-linecap="round" stroke-linejoin="round"></path><path d="M10.6006 18.8C10.2841 18.5729 10.0277 18.2721 9.85347 17.9236C9.67925 17.5752 9.59247 17.1895 9.60062 16.8C9.59247 16.4106 9.67925 16.0249 9.85347 15.6765C10.0277 15.328 10.2841 15.0272 10.6006 14.8C10.9171 14.5729 11.1736 14.2721 11.3478 13.9236C11.522 13.5752 11.6088 13.1895 11.6006 12.8C11.6088 12.4106 11.522 12.0249 11.3478 11.6765C11.1736 11.328 10.9171 11.0272 10.6006 10.8" stroke="#232323" stroke-width="1.5" stroke-linecap="round" stroke-linejoin="round"></path><path d="M6.0001 14.1001C5.98229 14.1001 5.96461 14.0996 5.94706 14.0986M17.7063 14.1001H19.2001C19.6972 14.1001 20.1001 13.6972 20.1001 13.2001V6.0001C20.1001 5.50304 19.6972 5.1001 19.2001 5.1001H6.0001C5.50304 5.1001 5.1001 5.50304 5.1001 6.0001V13.2001C5.1001 13.6793 5.47469 14.0711 5.94706 14.0986M5.94706 14.0986H7.42782" stroke="#232323" stroke-width="1.5" stroke-linecap="round"></path></g><defs><clipPath id="clip0_4025_2759"><rect width="24" height="24" fill="white"></rect></clipPath></defs></svg>