<svg width="20" height="20" viewBox="0 0 24 24" fill="none" xmlns="http://www.w3.org/2000/svg"><g clip-path="url(#clip0_4025_2413)"><path d="M12 15.75C14.0711 15.75 15.75 14.0711 15.75 12C15.75 9.92893 14.0711 8.25 12 8.25C9.92893 8.25 8.25 9.92893 8.25 12C8.25 14.0711 9.92893 15.75 12 15.75Z" stroke="#232323" stroke-width="1.5" stroke-linecap="round" stroke-linejoin="round"></path><path d="M12 3C13.78 3 15.5201 3.52784 17.0001 4.51677C18.4802 5.50571 19.6337 6.91131 20.3149 8.55585C20.9961 10.2004 21.1743 12.01 20.8271 13.7558C20.4798 15.5016 19.6226 17.1053 18.364 18.364C17.1053 19.6226 15.5016 20.4798 13.7558 20.8271C12.01 21.1743 10.2004 20.9961 8.55585 20.3149C6.91131 19.6337 5.50571 18.4802 4.51677 17.0001C3.52784 15.5201 3 13.78 3 12H4.4963C4.4963 13.4841 4.93638 14.9349 5.7609 16.1688C6.58542 17.4028 7.75733 18.3646 9.12846 18.9325C10.4996 19.5005 12.0083 19.6491 13.4639 19.3595C14.9195 19.07 16.2565 18.3553 17.3059 17.3059C18.3553 16.2565 19.07 14.9195 19.3595 13.4639C19.6491 12.0083 19.5005 10.4996 18.9325 9.12846C18.3646 7.75733 17.4028 6.58542 16.1688 5.7609C14.9349 4.93638 13.4841 4.4963 12 4.4963V3Z" fill="#232323"></path><path d="M2.26858 11.3984C2.4121 9.07679 3.3809 6.88296 5.00008 5.21298C6.61926 3.54301 8.78213 2.50693 11.0982 2.29179L11.515 6.77899C10.2695 6.89468 9.10627 7.45188 8.23549 8.34998C7.3647 9.24808 6.84368 10.4279 6.7665 11.6765L2.26858 11.3984Z" fill="#232323"></path><circle cx="10.3242" cy="11.5503" r="0.75" fill="#232323"></circle><circle cx="12" cy="10.0503" r="0.75" fill="#232323"></circle><circle cx="13.6763" cy="11.5503" r="0.75" fill="#232323"></circle><circle cx="13.0601" cy="13.5483" r="0.75" fill="#232323"></circle><circle cx="10.9644" cy="13.5483" r="0.75" fill="#232323"></circle></g><defs><clipPath id="clip0_4025_2413"><rect width="24" height="24" fill="white"></rect></clipPath></defs></svg>