<svg width="20" height="20" viewBox="0 0 24 24" fill="none" xmlns="http://www.w3.org/2000/svg"><g clip-path="url(#clip0_4025_2506)"><path d="M12 21C12.5523 21 13 20.5523 13 20C13 19.4477 12.5523 19 12 19C11.4477 19 11 19.4477 11 20C11 20.5523 11.4477 21 12 21Z" stroke="#232323" stroke-width="1.5" stroke-linecap="round" stroke-linejoin="round"></path><path d="M3 11L8.5 16.5C9.43464 15.5839 10.6912 15.0707 12 15.0707C13.3088 15.0707 14.5654 15.5839 15.5 16.5L21 11C19.8739 9.72312 18.489 8.70048 16.9373 8C15.3855 7.29953 13.7025 6.93726 12 6.93726C10.2975 6.93726 8.61447 7.29953 7.06275 8C5.51102 8.70048 4.1261 9.72312 3 11" stroke="#232323" stroke-width="1.5" stroke-linecap="round" stroke-linejoin="round"></path><path d="M12 20V9.75" stroke="#232323" stroke-width="1.5" stroke-linecap="round" stroke-linejoin="round"></path><path d="M3.9999 6.00007C3.99123 5.37711 4.1282 4.76073 4.3999 4.20007" stroke="#232323" stroke-width="1.5" stroke-linecap="round" stroke-linejoin="round"></path><path d="M7 2.09992C7.65591 1.93056 8.34409 1.93056 9 2.09992" stroke="#232323" stroke-width="1.5" stroke-linecap="round" stroke-linejoin="round"></path><path d="M12.0001 7.8C12.0088 7.17704 11.8718 6.56066 11.6001 6" stroke="#232323" stroke-width="1.5" stroke-linecap="round" stroke-linejoin="round"></path><path d="M11.9999 7.8C11.9912 7.17704 12.1282 6.56066 12.3999 6" stroke="#232323" stroke-width="1.5" stroke-linecap="round" stroke-linejoin="round"></path><path d="M15 2.09992C15.6559 1.93056 16.3441 1.93056 17 2.09992" stroke="#232323" stroke-width="1.5" stroke-linecap="round" stroke-linejoin="round"></path><path d="M20.0001 6.00007C20.0088 5.37711 19.8718 4.76073 19.6001 4.20007" stroke="#232323" stroke-width="1.5" stroke-linecap="round" stroke-linejoin="round"></path></g><defs><clipPath id="clip0_4025_2506"><rect width="20" height="20" fill="white"></rect></clipPath></defs></svg>