<svg width="20" height="20" viewBox="0 0 24 24" fill="none" xmlns="http://www.w3.org/2000/svg"><g clip-path="url(#clip0_502_34897)"><path d="M11.2263 7.25H11.8066C11.8066 6.92948 11.5468 6.66964 11.2263 6.66964V7.25ZM9.0561 7.25V6.66964C8.73558 6.66964 8.47575 6.92948 8.47575 7.25H9.0561ZM9.0561 9.12502L9.05609 9.70538H9.0561V9.12502ZM4.99667 9.1249L4.99668 8.54454H4.99667V9.1249ZM3.25686 10.3749L3.78332 10.6192L3.25686 10.3749ZM2.67692 11.6249L2.15046 11.3807L2.67692 11.6249ZM3.83668 13.4999L3.83674 12.9196H3.83664L3.83668 13.4999ZM17.1752 11.6249L17.7017 11.3807L17.7017 11.3807L17.1752 11.6249ZM16.5953 10.3749L17.1217 10.1307L16.5953 10.3749ZM11.2263 6.66964H9.0561V7.83036H11.2263V6.66964ZM8.47575 7.25V9.12502H9.63646V7.25H8.47575ZM9.05612 8.54466L4.99668 8.54454L4.99665 9.70526L9.05609 9.70538L9.05612 8.54466ZM4.99667 8.54454C4.43149 8.54454 3.3079 8.88591 2.7304 10.1307L3.78332 10.6192C4.13372 9.86389 4.78859 9.70526 4.99667 9.70526V8.54454ZM2.7304 10.1307L2.15046 11.3807L3.20338 11.8692L3.78332 10.6192L2.7304 10.1307ZM2.15046 11.3807C2.03024 11.6398 1.82757 12.2507 1.96649 12.8498C2.04155 13.1736 2.21998 13.503 2.5623 13.7417C2.89493 13.9736 3.3255 14.0803 3.83672 14.0803L3.83664 12.9196C3.47791 12.9196 3.30438 12.8441 3.22623 12.7896C3.15777 12.7418 3.11876 12.6806 3.09721 12.5876C3.04289 12.3534 3.13029 12.0267 3.20338 11.8692L2.15046 11.3807ZM3.83662 14.0803C4.99665 14.0804 8.59221 14.0803 16.0153 14.0803V12.9196C8.5921 12.9196 4.99669 12.9197 3.83674 12.9196L3.83662 14.0803ZM16.0153 14.0803C16.4552 14.0803 16.8424 14.0399 17.1601 13.9327C17.4881 13.8219 17.7844 13.6239 17.9509 13.2906C18.1102 12.9718 18.0999 12.6284 18.0396 12.3303C17.9789 12.0299 17.8536 11.7083 17.7017 11.3807L16.6488 11.8691C16.7868 12.1666 16.8679 12.392 16.9019 12.5603C16.9364 12.731 16.9094 12.7782 16.9126 12.7719C16.923 12.7511 16.9238 12.7874 16.7889 12.8329C16.6438 12.8819 16.4008 12.9196 16.0153 12.9196V14.0803ZM17.7017 11.3807L17.1217 10.1307L16.0688 10.6192L16.6488 11.8692L17.7017 11.3807ZM17.1217 10.1307C17.0265 9.9254 16.844 9.52203 16.494 9.1791C16.1248 8.81745 15.5943 8.54454 14.8555 8.54454V9.70526C15.2765 9.70526 15.5192 9.84903 15.6817 10.0082C15.8633 10.1861 15.9708 10.4078 16.0688 10.6192L17.1217 10.1307ZM14.8555 8.54454C14.6868 8.54454 14.2122 8.54457 13.5635 8.5446C12.9147 8.54463 12.0917 8.54466 11.2263 8.54466V9.70538C12.0917 9.70538 12.9147 9.70535 13.5635 9.70532C14.2123 9.70529 14.6869 9.70526 14.8555 9.70526V8.54454ZM11.2263 8.54466C11.225 8.54466 11.2237 8.54466 11.2224 8.54466C11.2212 8.54466 11.2199 8.54466 11.2186 8.54466C11.2173 8.54466 11.2161 8.54466 11.2148 8.54466C11.2135 8.54466 11.2122 8.54466 11.2109 8.54466C11.2097 8.54466 11.2084 8.54466 11.2071 8.54466C11.2058 8.54466 11.2045 8.54466 11.2032 8.54466C11.2019 8.54466 11.2006 8.54466 11.1994 8.54466C11.1981 8.54466 11.1968 8.54466 11.1955 8.54466C11.1942 8.54466 11.1929 8.54466 11.1916 8.54466C11.1903 8.54466 11.189 8.54466 11.1877 8.54466C11.1864 8.54466 11.1851 8.54466 11.1838 8.54466C11.1825 8.54466 11.1812 8.54466 11.1799 8.54466C11.1786 8.54466 11.1773 8.54466 11.176 8.54466C11.1746 8.54466 11.1733 8.54466 11.172 8.54466C11.1707 8.54466 11.1694 8.54466 11.1681 8.54466C11.1668 8.54466 11.1655 8.54466 11.1641 8.54466C11.1628 8.54466 11.1615 8.54466 11.1602 8.54466C11.1589 8.54466 11.1575 8.54466 11.1562 8.54466C11.1549 8.54466 11.1536 8.54466 11.1522 8.54466C11.1509 8.54466 11.1496 8.54466 11.1483 8.54466C11.1469 8.54466 11.1456 8.54466 11.1443 8.54466C11.1429 8.54466 11.1416 8.54466 11.1403 8.54466C11.1389 8.54466 11.1376 8.54466 11.1363 8.54466C11.1349 8.54466 11.1336 8.54466 11.1323 8.54466C11.1309 8.54466 11.1296 8.54466 11.1282 8.54466C11.1269 8.54466 11.1256 8.54466 11.1242 8.54466C11.1229 8.54466 11.1215 8.54466 11.1202 8.54466C11.1188 8.54466 11.1175 8.54466 11.1161 8.54466C11.1148 8.54466 11.1134 8.54466 11.1121 8.54466C11.1107 8.54466 11.1094 8.54466 11.108 8.54466C11.1067 8.54466 11.1053 8.54466 11.104 8.54466C11.1026 8.54466 11.1012 8.54466 11.0999 8.54466C11.0985 8.54466 11.0972 8.54466 11.0958 8.54466C11.0944 8.54466 11.0931 8.54466 11.0917 8.54466C11.0903 8.54466 11.089 8.54466 11.0876 8.54466C11.0862 8.54466 11.0849 8.54466 11.0835 8.54466C11.0821 8.54466 11.0808 8.54466 11.0794 8.54466C11.078 8.54466 11.0767 8.54466 11.0753 8.54466C11.0739 8.54466 11.0725 8.54466 11.0711 8.54466C11.0698 8.54466 11.0684 8.54466 11.067 8.54466C11.0656 8.54466 11.0643 8.54466 11.0629 8.54466C11.0615 8.54466 11.0601 8.54466 11.0587 8.54466C11.0573 8.54466 11.056 8.54466 11.0546 8.54466C11.0532 8.54466 11.0518 8.54466 11.0504 8.54466C11.049 8.54466 11.0476 8.54466 11.0462 8.54466C11.0448 8.54466 11.0434 8.54466 11.0421 8.54466C11.0407 8.54466 11.0393 8.54466 11.0379 8.54466C11.0365 8.54466 11.0351 8.54466 11.0337 8.54466C11.0323 8.54466 11.0309 8.54466 11.0295 8.54466C11.0281 8.54466 11.0267 8.54466 11.0253 8.54466C11.0239 8.54466 11.0225 8.54466 11.0211 8.54466C11.0197 8.54466 11.0183 8.54466 11.0168 8.54466C11.0154 8.54466 11.014 8.54466 11.0126 8.54466C11.0112 8.54466 11.0098 8.54466 11.0084 8.54466C11.007 8.54466 11.0056 8.54466 11.0041 8.54466C11.0027 8.54466 11.0013 8.54466 10.9999 8.54466C10.9985 8.54466 10.9971 8.54466 10.9956 8.54466C10.9942 8.54466 10.9928 8.54466 10.9914 8.54466C10.99 8.54466 10.9885 8.54466 10.9871 8.54466C10.9857 8.54466 10.9843 8.54466 10.9829 8.54466C10.9814 8.54466 10.98 8.54466 10.9786 8.54466C10.9771 8.54466 10.9757 8.54466 10.9743 8.54466C10.9729 8.54466 10.9714 8.54466 10.97 8.54466C10.9686 8.54466 10.9671 8.54466 10.9657 8.54466C10.9643 8.54466 10.9628 8.54466 10.9614 8.54466C10.96 8.54466 10.9585 8.54466 10.9571 8.54466C10.9556 8.54466 10.9542 8.54466 10.9528 8.54466C10.9513 8.54466 10.9499 8.54466 10.9484 8.54466C10.947 8.54466 10.9456 8.54466 10.9441 8.54466C10.9427 8.54466 10.9412 8.54466 10.9398 8.54466C10.9383 8.54466 10.9369 8.54466 10.9354 8.54466C10.934 8.54466 10.9325 8.54466 10.9311 8.54466C10.9296 8.54466 10.9282 8.54466 10.9267 8.54466C10.9253 8.54466 10.9238 8.54466 10.9224 8.54466C10.9209 8.54466 10.9195 8.54466 10.918 8.54466C10.9166 8.54466 10.9151 8.54466 10.9137 8.54466C10.9122 8.54466 10.9107 8.54466 10.9093 8.54466C10.9078 8.54466 10.9064 8.54466 10.9049 8.54466C10.9034 8.54466 10.902 8.54466 10.9005 8.54466C10.899 8.54466 10.8976 8.54466 10.8961 8.54466C10.8946 8.54466 10.8932 8.54466 10.8917 8.54466C10.8902 8.54466 10.8888 8.54466 10.8873 8.54466C10.8858 8.54466 10.8844 8.54466 10.8829 8.54466C10.8814 8.54466 10.88 8.54466 10.8785 8.54466C10.877 8.54466 10.8755 8.54466 10.8741 8.54466C10.8726 8.54466 10.8711 8.54466 10.8696 8.54466C10.8682 8.54466 10.8667 8.54466 10.8652 8.54466C10.8637 8.54466 10.8623 8.54466 10.8608 8.54466C10.8593 8.54466 10.8578 8.54466 10.8563 8.54466C10.8549 8.54466 10.8534 8.54466 10.8519 8.54466C10.8504 8.54466 10.8489 8.54466 10.8474 8.54466C10.846 8.54466 10.8445 8.54466 10.843 8.54466C10.8415 8.54466 10.84 8.54466 10.8385 8.54466C10.837 8.54466 10.8355 8.54466 10.8341 8.54466C10.8326 8.54466 10.8311 8.54466 10.8296 8.54466C10.8281 8.54466 10.8266 8.54466 10.8251 8.54466C10.8236 8.54466 10.8221 8.54466 10.8206 8.54466C10.8191 8.54466 10.8176 8.54466 10.8161 8.54466C10.8146 8.54466 10.8131 8.54466 10.8116 8.54466C10.8102 8.54466 10.8087 8.54466 10.8072 8.54466C10.8057 8.54466 10.8042 8.54466 10.8027 8.54466C10.8012 8.54466 10.7996 8.54466 10.7981 8.54466C10.7966 8.54466 10.7951 8.54466 10.7936 8.54466C10.7921 8.54466 10.7906 8.54466 10.7891 8.54466C10.7876 8.54466 10.7861 8.54466 10.7846 8.54466C10.7831 8.54466 10.7816 8.54466 10.7801 8.54466C10.7786 8.54466 10.7771 8.54466 10.7756 8.54466C10.774 8.54466 10.7725 8.54466 10.771 8.54466C10.7695 8.54466 10.768 8.54466 10.7665 8.54466C10.765 8.54466 10.7635 8.54466 10.7619 8.54466C10.7604 8.54466 10.7589 8.54466 10.7574 8.54466C10.7559 8.54466 10.7544 8.54466 10.7528 8.54466C10.7513 8.54466 10.7498 8.54466 10.7483 8.54466C10.7468 8.54466 10.7453 8.54466 10.7437 8.54466C10.7422 8.54466 10.7407 8.54466 10.7392 8.54466C10.7377 8.54466 10.7361 8.54466 10.7346 8.54466C10.7331 8.54466 10.7316 8.54466 10.73 8.54466C10.7285 8.54466 10.727 8.54466 10.7255 8.54466C10.7239 8.54466 10.7224 8.54466 10.7209 8.54466C10.7194 8.54466 10.7178 8.54466 10.7163 8.54466C10.7148 8.54466 10.7133 8.54466 10.7117 8.54466C10.7102 8.54466 10.7087 8.54466 10.7071 8.54466C10.7056 8.54466 10.7041 8.54466 10.7025 8.54466C10.701 8.54466 10.6995 8.54466 10.6979 8.54466C10.6964 8.54466 10.6949 8.54466 10.6933 8.54466C10.6918 8.54466 10.6903 8.54466 10.6887 8.54466C10.6872 8.54466 10.6857 8.54466 10.6841 8.54466C10.6826 8.54466 10.6811 8.54466 10.6795 8.54466C10.678 8.54466 10.6764 8.54466 10.6749 8.54466C10.6734 8.54466 10.6718 8.54466 10.6703 8.54466C10.6687 8.54466 10.6672 8.54466 10.6657 8.54466C10.6641 8.54466 10.6626 8.54466 10.661 8.54466C10.6595 8.54466 10.658 8.54466 10.6564 8.54466C10.6549 8.54466 10.6533 8.54466 10.6518 8.54466C10.6502 8.54466 10.6487 8.54466 10.6471 8.54466C10.6456 8.54466 10.6441 8.54466 10.6425 8.54466C10.641 8.54466 10.6394 8.54466 10.6379 8.54466C10.6363 8.54466 10.6348 8.54466 10.6332 8.54466C10.6317 8.54466 10.6301 8.54466 10.6286 8.54466C10.627 8.54466 10.6255 8.54466 10.6239 8.54466C10.6224 8.54466 10.6208 8.54466 10.6193 8.54466C10.6177 8.54466 10.6162 8.54466 10.6146 8.54466C10.6131 8.54466 10.6115 8.54466 10.61 8.54466C10.6084 8.54466 10.6068 8.54466 10.6053 8.54466C10.6037 8.54466 10.6022 8.54466 10.6006 8.54466C10.5991 8.54466 10.5975 8.54466 10.596 8.54466C10.5944 8.54466 10.5928 8.54466 10.5913 8.54466C10.5897 8.54466 10.5882 8.54466 10.5866 8.54466C10.5851 8.54466 10.5835 8.54466 10.5819 8.54466C10.5804 8.54466 10.5788 8.54466 10.5773 8.54466C10.5757 8.54466 10.5741 8.54466 10.5726 8.54466C10.571 8.54466 10.5695 8.54466 10.5679 8.54466C10.5663 8.54466 10.5648 8.54466 10.5632 8.54466C10.5617 8.54466 10.5601 8.54466 10.5585 8.54466C10.557 8.54466 10.5554 8.54466 10.5538 8.54466C10.5523 8.54466 10.5507 8.54466 10.5491 8.54466C10.5476 8.54466 10.546 8.54466 10.5444 8.54466C10.5429 8.54466 10.5413 8.54466 10.5398 8.54466C10.5382 8.54466 10.5366 8.54466 10.5351 8.54466C10.5335 8.54466 10.5319 8.54466 10.5304 8.54466C10.5288 8.54466 10.5272 8.54466 10.5256 8.54466C10.5241 8.54466 10.5225 8.54466 10.5209 8.54466C10.5194 8.54466 10.5178 8.54466 10.5162 8.54466C10.5147 8.54466 10.5131 8.54466 10.5115 8.54466C10.51 8.54466 10.5084 8.54466 10.5068 8.54466C10.5052 8.54466 10.5037 8.54466 10.5021 8.54466C10.5005 8.54466 10.499 8.54466 10.4974 8.54466C10.4958 8.54466 10.4942 8.54466 10.4927 8.54466C10.4911 8.54466 10.4895 8.54466 10.4879 8.54466C10.4864 8.54466 10.4848 8.54466 10.4832 8.54466C10.4816 8.54466 10.4801 8.54466 10.4785 8.54466C10.4769 8.54466 10.4754 8.54466 10.4738 8.54466C10.4722 8.54466 10.4706 8.54466 10.469 8.54466C10.4675 8.54466 10.4659 8.54466 10.4643 8.54466C10.4627 8.54466 10.4612 8.54466 10.4596 8.54466C10.458 8.54466 10.4564 8.54466 10.4549 8.54466C10.4533 8.54466 10.4517 8.54466 10.4501 8.54466C10.4486 8.54466 10.447 8.54466 10.4454 8.54466C10.4438 8.54466 10.4422 8.54466 10.4407 8.54466C10.4391 8.54466 10.4375 8.54466 10.4359 8.54466C10.4343 8.54466 10.4328 8.54466 10.4312 8.54466C10.4296 8.54466 10.428 8.54466 10.4264 8.54466C10.4249 8.54466 10.4233 8.54466 10.4217 8.54466C10.4201 8.54466 10.4185 8.54466 10.417 8.54466C10.4154 8.54466 10.4138 8.54466 10.4122 8.54466C10.4106 8.54466 10.4091 8.54466 10.4075 8.54466C10.4059 8.54466 10.4043 8.54466 10.4027 8.54466C10.4012 8.54466 10.3996 8.54466 10.398 8.54466C10.3964 8.54466 10.3948 8.54466 10.3932 8.54466C10.3917 8.54466 10.3901 8.54466 10.3885 8.54466C10.3869 8.54466 10.3853 8.54466 10.3838 8.54466C10.3822 8.54466 10.3806 8.54466 10.379 8.54466C10.3774 8.54466 10.3758 8.54466 10.3743 8.54466C10.3727 8.54466 10.3711 8.54466 10.3695 8.54466C10.3679 8.54466 10.3663 8.54466 10.3648 8.54466C10.3632 8.54466 10.3616 8.54466 10.36 8.54466C10.3584 8.54466 10.3568 8.54466 10.3553 8.54466C10.3537 8.54466 10.3521 8.54466 10.3505 8.54466C10.3489 8.54466 10.3473 8.54466 10.3457 8.54466C10.3442 8.54466 10.3426 8.54466 10.341 8.54466C10.3394 8.54466 10.3378 8.54466 10.3362 8.54466C10.3347 8.54466 10.3331 8.54466 10.3315 8.54466C10.3299 8.54466 10.3283 8.54466 10.3267 8.54466C10.3251 8.54466 10.3236 8.54466 10.322 8.54466C10.3204 8.54466 10.3188 8.54466 10.3172 8.54466C10.3156 8.54466 10.3141 8.54466 10.3125 8.54466C10.3109 8.54466 10.3093 8.54466 10.3077 8.54466C10.3061 8.54466 10.3045 8.54466 10.303 8.54466C10.3014 8.54466 10.2998 8.54466 10.2982 8.54466C10.2966 8.54466 10.295 8.54466 10.2934 8.54466C10.2919 8.54466 10.2903 8.54466 10.2887 8.54466C10.2871 8.54466 10.2855 8.54466 10.2839 8.54466C10.2824 8.54466 10.2808 8.54466 10.2792 8.54466C10.2776 8.54466 10.276 8.54466 10.2744 8.54466C10.2728 8.54466 10.2713 8.54466 10.2697 8.54466C10.2681 8.54466 10.2665 8.54466 10.2649 8.54466C10.2633 8.54466 10.2617 8.54466 10.2602 8.54466C10.2586 8.54466 10.257 8.54466 10.2554 8.54466C10.2538 8.54466 10.2522 8.54466 10.2507 8.54466C10.2491 8.54466 10.2475 8.54466 10.2459 8.54466C10.2443 8.54466 10.2427 8.54466 10.2412 8.54466C10.2396 8.54466 10.238 8.54466 10.2364 8.54466C10.2348 8.54466 10.2332 8.54466 10.2316 8.54466C10.2301 8.54466 10.2285 8.54466 10.2269 8.54466C10.2253 8.54466 10.2237 8.54466 10.2221 8.54466C10.2206 8.54466 10.219 8.54466 10.2174 8.54466C10.2158 8.54466 10.2142 8.54466 10.2126 8.54466C10.2111 8.54466 10.2095 8.54466 10.2079 8.54466C10.2063 8.54466 10.2047 8.54466 10.2032 8.54466C10.2016 8.54466 10.2 8.54466 10.1984 8.54466C10.1968 8.54466 10.1952 8.54466 10.1937 8.54466C10.1921 8.54466 10.1905 8.54466 10.1889 8.54466C10.1873 8.54466 10.1858 8.54466 10.1842 8.54466C10.1826 8.54466 10.181 8.54466 10.1794 8.54466C10.1778 8.54466 10.1763 8.54466 10.1747 8.54466C10.1731 8.54466 10.1715 8.54466 10.1699 8.54466C10.1684 8.54466 10.1668 8.54466 10.1652 8.54466C10.1636 8.54466 10.162 8.54466 10.1605 8.54466C10.1589 8.54466 10.1573 8.54466 10.1557 8.54466C10.1542 8.54466 10.1526 8.54466 10.151 8.54466C10.1494 8.54466 10.1478 8.54466 10.1463 8.54466C10.1447 8.54466 10.1431 8.54466 10.1415 8.54466C10.14 8.54466 10.1384 8.54466 10.1368 8.54466C10.1352 8.54466 10.1336 8.54466 10.1321 8.54466C10.1305 8.54466 10.1289 8.54466 10.1273 8.54466C10.1258 8.54466 10.1242 8.54466 10.1226 8.54466C10.121 8.54466 10.1195 8.54466 10.1179 8.54466C10.1163 8.54466 10.1147 8.54466 10.1132 8.54466C10.1116 8.54466 10.11 8.54466 10.1084 8.54466C10.1069 8.54466 10.1053 8.54466 10.1037 8.54466C10.1021 8.54466 10.1006 8.54466 10.099 8.54466C10.0974 8.54466 10.0959 8.54466 10.0943 8.54466C10.0927 8.54466 10.0911 8.54466 10.0896 8.54466C10.088 8.54466 10.0864 8.54466 10.0849 8.54466C10.0833 8.54466 10.0817 8.54466 10.0801 8.54466C10.0786 8.54466 10.077 8.54466 10.0754 8.54466C10.0739 8.54466 10.0723 8.54466 10.0707 8.54466C10.0692 8.54466 10.0676 8.54466 10.066 8.54466C10.0645 8.54466 10.0629 8.54466 10.0613 8.54466C10.0597 8.54466 10.0582 8.54466 10.0566 8.54466C10.055 8.54466 10.0535 8.54466 10.0519 8.54466C10.0503 8.54466 10.0488 8.54466 10.0472 8.54466C10.0457 8.54466 10.0441 8.54466 10.0425 8.54466C10.041 8.54466 10.0394 8.54466 10.0378 8.54466C10.0363 8.54466 10.0347 8.54466 10.0331 8.54466C10.0316 8.54466 10.03 8.54466 10.0285 8.54466C10.0269 8.54466 10.0253 8.54466 10.0238 8.54466C10.0222 8.54466 10.0206 8.54466 10.0191 8.54466C10.0175 8.54466 10.016 8.54466 10.0144 8.54466C10.0128 8.54466 10.0113 8.54466 10.0097 8.54466C10.0082 8.54466 10.0066 8.54466 10.0051 8.54466C10.0035 8.54466 10.0019 8.54466 10.0004 8.54466C9.99883 8.54466 9.99727 8.54466 9.99571 8.54466C9.99416 8.54466 9.9926 8.54466 9.99105 8.54466C9.98949 8.54466 9.98794 8.54466 9.98638 8.54466C9.98483 8.54466 9.98327 8.54466 9.98172 8.54466C9.98017 8.54466 9.97861 8.54466 9.97706 8.54466C9.97551 8.54466 9.97396 8.54466 9.97241 8.54466C9.97086 8.54466 9.96931 8.54466 9.96775 8.54466C9.9662 8.54466 9.96465 8.54466 9.96311 8.54466C9.96156 8.54466 9.96001 8.54466 9.95846 8.54466C9.95691 8.54466 9.95536 8.54466 9.95382 8.54466C9.95227 8.54466 9.95072 8.54466 9.94918 8.54466C9.94763 8.54466 9.94608 8.54466 9.94454 8.54466C9.94299 8.54466 9.94145 8.54466 9.9399 8.54466C9.93836 8.54466 9.93682 8.54466 9.93527 8.54466C9.93373 8.54466 9.93219 8.54466 9.93065 8.54466C9.9291 8.54466 9.92756 8.54466 9.92602 8.54466C9.92448 8.54466 9.92294 8.54466 9.9214 8.54466C9.91986 8.54466 9.91832 8.54466 9.91678 8.54466C9.91525 8.54466 9.91371 8.54466 9.91217 8.54466C9.91063 8.54466 9.9091 8.54466 9.90756 8.54466C9.90602 8.54466 9.90449 8.54466 9.90295 8.54466C9.90142 8.54466 9.89989 8.54466 9.89835 8.54466C9.89682 8.54466 9.89528 8.54466 9.89375 8.54466C9.89222 8.54466 9.89069 8.54466 9.88916 8.54466C9.88763 8.54466 9.88609 8.54466 9.88456 8.54466C9.88303 8.54466 9.88151 8.54466 9.87998 8.54466C9.87845 8.54466 9.87692 8.54466 9.87539 8.54466C9.87386 8.54466 9.87234 8.54466 9.87081 8.54466C9.86929 8.54466 9.86776 8.54466 9.86623 8.54466C9.86471 8.54466 9.86319 8.54466 9.86166 8.54466C9.86014 8.54466 9.85862 8.54466 9.85709 8.54466C9.85557 8.54466 9.85405 8.54466 9.85253 8.54466C9.85101 8.54466 9.84949 8.54466 9.84797 8.54466C9.84645 8.54466 9.84493 8.54466 9.84341 8.54466C9.84189 8.54466 9.84038 8.54466 9.83886 8.54466C9.83734 8.54466 9.83583 8.54466 9.83431 8.54466C9.8328 8.54466 9.83128 8.54466 9.82977 8.54466C9.82825 8.54466 9.82674 8.54466 9.82523 8.54466C9.82372 8.54466 9.8222 8.54466 9.82069 8.54466C9.81918 8.54466 9.81767 8.54466 9.81616 8.54466C9.81465 8.54466 9.81314 8.54466 9.81164 8.54466C9.81013 8.54466 9.80862 8.54466 9.80711 8.54466C9.80561 8.54466 9.8041 8.54466 9.8026 8.54466C9.80109 8.54466 9.79959 8.54466 9.79808 8.54466C9.79658 8.54466 9.79508 8.54466 9.79357 8.54466C9.79207 8.54466 9.79057 8.54466 9.78907 8.54466C9.78757 8.54466 9.78607 8.54466 9.78457 8.54466C9.78307 8.54466 9.78157 8.54466 9.78008 8.54466C9.77858 8.54466 9.77708 8.54466 9.77559 8.54466C9.77409 8.54466 9.7726 8.54466 9.7711 8.54466C9.76961 8.54466 9.76812 8.54466 9.76662 8.54466C9.76513 8.54466 9.76364 8.54466 9.76215 8.54466C9.76066 8.54466 9.75917 8.54466 9.75768 8.54466C9.75619 8.54466 9.7547 8.54466 9.75321 8.54466C9.75173 8.54466 9.75024 8.54466 9.74875 8.54466C9.74727 8.54466 9.74578 8.54466 9.7443 8.54466C9.74281 8.54466 9.74133 8.54466 9.73985 8.54466C9.73836 8.54466 9.73688 8.54466 9.7354 8.54466C9.73392 8.54466 9.73244 8.54466 9.73096 8.54466C9.72948 8.54466 9.72801 8.54466 9.72653 8.54466C9.72505 8.54466 9.72358 8.54466 9.7221 8.54466C9.72062 8.54466 9.71915 8.54466 9.71768 8.54466C9.7162 8.54466 9.71473 8.54466 9.71326 8.54466C9.71179 8.54466 9.71031 8.54466 9.70884 8.54466C9.70737 8.54466 9.7059 8.54466 9.70444 8.54466C9.70297 8.54466 9.7015 8.54466 9.70003 8.54466C9.69857 8.54466 9.6971 8.54466 9.69564 8.54466C9.69417 8.54466 9.69271 8.54466 9.69125 8.54466C9.68978 8.54466 9.68832 8.54466 9.68686 8.54466C9.6854 8.54466 9.68394 8.54466 9.68248 8.54466C9.68102 8.54466 9.67956 8.54466 9.67811 8.54466C9.67665 8.54466 9.67519 8.54466 9.67374 8.54466C9.67228 8.54466 9.67083 8.54466 9.66938 8.54466C9.66792 8.54466 9.66647 8.54466 9.66502 8.54466C9.66357 8.54466 9.66212 8.54466 9.66067 8.54466C9.65922 8.54466 9.65777 8.54466 9.65632 8.54466C9.65488 8.54466 9.65343 8.54466 9.65199 8.54466C9.65054 8.54466 9.6491 8.54466 9.64765 8.54466C9.64621 8.54466 9.64477 8.54466 9.64333 8.54466C9.64189 8.54466 9.64045 8.54466 9.63901 8.54466C9.63757 8.54466 9.63613 8.54466 9.63469 8.54466C9.63325 8.54466 9.63182 8.54466 9.63038 8.54466C9.62895 8.54466 9.62751 8.54466 9.62608 8.54466C9.62465 8.54466 9.62322 8.54466 9.62179 8.54466C9.62035 8.54466 9.61892 8.54466 9.6175 8.54466C9.61607 8.54466 9.61464 8.54466 9.61321 8.54466C9.61179 8.54466 9.61036 8.54466 9.60894 8.54466C9.60751 8.54466 9.60609 8.54466 9.60466 8.54466C9.60324 8.54466 9.60182 8.54466 9.6004 8.54466C9.59898 8.54466 9.59756 8.54466 9.59614 8.54466C9.59473 8.54466 9.59331 8.54466 9.59189 8.54466C9.59048 8.54466 9.58906 8.54466 9.58765 8.54466C9.58624 8.54466 9.58482 8.54466 9.58341 8.54466C9.582 8.54466 9.58059 8.54466 9.57918 8.54466C9.57777 8.54466 9.57636 8.54466 9.57496 8.54466C9.57355 8.54466 9.57214 8.54466 9.57074 8.54466C9.56933 8.54466 9.56793 8.54466 9.56653 8.54466C9.56513 8.54466 9.56372 8.54466 9.56232 8.54466C9.56092 8.54466 9.55953 8.54466 9.55813 8.54466C9.55673 8.54466 9.55533 8.54466 9.55394 8.54466C9.55254 8.54466 9.55115 8.54466 9.54976 8.54466C9.54836 8.54466 9.54697 8.54466 9.54558 8.54466C9.54419 8.54466 9.5428 8.54466 9.54141 8.54466C9.54002 8.54466 9.53864 8.54466 9.53725 8.54466C9.53586 8.54466 9.53448 8.54466 9.53309 8.54466C9.53171 8.54466 9.53033 8.54466 9.52895 8.54466C9.52757 8.54466 9.52619 8.54466 9.52481 8.54466C9.52343 8.54466 9.52205 8.54466 9.52068 8.54466C9.5193 8.54466 9.51792 8.54466 9.51655 8.54466C9.51518 8.54466 9.5138 8.54466 9.51243 8.54466C9.51106 8.54466 9.50969 8.54466 9.50832 8.54466C9.50695 8.54466 9.50559 8.54466 9.50422 8.54466C9.50285 8.54466 9.50149 8.54466 9.50012 8.54466C9.49876 8.54466 9.4974 8.54466 9.49604 8.54466C9.49467 8.54466 9.49331 8.54466 9.49195 8.54466C9.4906 8.54466 9.48924 8.54466 9.48788 8.54466C9.48653 8.54466 9.48517 8.54466 9.48382 8.54466C9.48246 8.54466 9.48111 8.54466 9.47976 8.54466C9.47841 8.54466 9.47706 8.54466 9.47571 8.54466C9.47436 8.54466 9.47301 8.54466 9.47167 8.54466C9.47032 8.54466 9.46898 8.54466 9.46764 8.54466C9.46629 8.54466 9.46495 8.54466 9.46361 8.54466C9.46227 8.54466 9.46093 8.54466 9.45959 8.54466C9.45825 8.54466 9.45692 8.54466 9.45558 8.54466C9.45425 8.54466 9.45291 8.54466 9.45158 8.54466C9.45025 8.54466 9.44892 8.54466 9.44759 8.54466C9.44626 8.54466 9.44493 8.54466 9.4436 8.54466C9.44227 8.54466 9.44095 8.54466 9.43962 8.54466C9.4383 8.54466 9.43697 8.54466 9.43565 8.54466C9.43433 8.54466 9.43301 8.54466 9.43169 8.54466C9.43037 8.54466 9.42905 8.54466 9.42774 8.54466C9.42642 8.54466 9.42511 8.54466 9.42379 8.54466C9.42248 8.54466 9.42117 8.54466 9.41986 8.54466C9.41855 8.54466 9.41724 8.54466 9.41593 8.54466C9.41462 8.54466 9.41332 8.54466 9.41201 8.54466C9.41071 8.54466 9.4094 8.54466 9.4081 8.54466C9.4068 8.54466 9.4055 8.54466 9.4042 8.54466C9.4029 8.54466 9.4016 8.54466 9.4003 8.54466C9.39901 8.54466 9.39771 8.54466 9.39642 8.54466C9.39513 8.54466 9.39383 8.54466 9.39254 8.54466C9.39125 8.54466 9.38996 8.54466 9.38868 8.54466C9.38739 8.54466 9.3861 8.54466 9.38482 8.54466C9.38353 8.54466 9.38225 8.54466 9.38097 8.54466C9.37968 8.54466 9.3784 8.54466 9.37713 8.54466C9.37585 8.54466 9.37457 8.54466 9.37329 8.54466C9.37202 8.54466 9.37074 8.54466 9.36947 8.54466C9.3682 8.54466 9.36692 8.54466 9.36565 8.54466C9.36439 8.54466 9.36312 8.54466 9.36185 8.54466C9.36058 8.54466 9.35932 8.54466 9.35805 8.54466C9.35679 8.54466 9.35553 8.54466 9.35427 8.54466C9.353 8.54466 9.35175 8.54466 9.35049 8.54466C9.34923 8.54466 9.34797 8.54466 9.34672 8.54466C9.34546 8.54466 9.34421 8.54466 9.34296 8.54466C9.34171 8.54466 9.34046 8.54466 9.33921 8.54466C9.33796 8.54466 9.33671 8.54466 9.33547 8.54466C9.33422 8.54466 9.33298 8.54466 9.33174 8.54466C9.33049 8.54466 9.32925 8.54466 9.32801 8.54466C9.32677 8.54466 9.32554 8.54466 9.3243 8.54466C9.32307 8.54466 9.32183 8.54466 9.3206 8.54466C9.31937 8.54466 9.31813 8.54466 9.3169 8.54466C9.31567 8.54466 9.31445 8.54466 9.31322 8.54466C9.31199 8.54466 9.31077 8.54466 9.30955 8.54466C9.30832 8.54466 9.3071 8.54466 9.30588 8.54466C9.30466 8.54466 9.30344 8.54466 9.30223 8.54466C9.30101 8.54466 9.29979 8.54466 9.29858 8.54466C9.29737 8.54466 9.29615 8.54466 9.29494 8.54466C9.29373 8.54466 9.29252 8.54466 9.29132 8.54466C9.29011 8.54466 9.28891 8.54466 9.2877 8.54466C9.2865 8.54466 9.2853 8.54466 9.2841 8.54466C9.2829 8.54466 9.2817 8.54466 9.2805 8.54466C9.2793 8.54466 9.27811 8.54466 9.27691 8.54466C9.27572 8.54466 9.27453 8.54466 9.27334 8.54466C9.27215 8.54466 9.27096 8.54466 9.26977 8.54466C9.26858 8.54466 9.2674 8.54466 9.26622 8.54466C9.26503 8.54466 9.26385 8.54466 9.26267 8.54466C9.26149 8.54466 9.26031 8.54466 9.25914 8.54466C9.25796 8.54466 9.25678 8.54466 9.25561 8.54466C9.25444 8.54466 9.25326 8.54466 9.2521 8.54466C9.25093 8.54466 9.24976 8.54466 9.24859 8.54466C9.24742 8.54466 9.24626 8.54466 9.2451 8.54466C9.24393 8.54466 9.24277 8.54466 9.24161 8.54466C9.24045 8.54466 9.2393 8.54466 9.23814 8.54466C9.23698 8.54466 9.23583 8.54466 9.23468 8.54466C9.23352 8.54466 9.23237 8.54466 9.23123 8.54466C9.23008 8.54466 9.22893 8.54466 9.22778 8.54466C9.22664 8.54466 9.22549 8.54466 9.22435 8.54466C9.22321 8.54466 9.22207 8.54466 9.22093 8.54466C9.21979 8.54466 9.21866 8.54466 9.21752 8.54466C9.21639 8.54466 9.21526 8.54466 9.21412 8.54466C9.21299 8.54466 9.21186 8.54466 9.21074 8.54466C9.20961 8.54466 9.20848 8.54466 9.20736 8.54466C9.20624 8.54466 9.20511 8.54466 9.20399 8.54466C9.20287 8.54466 9.20176 8.54466 9.20064 8.54466C9.19952 8.54466 9.19841 8.54466 9.1973 8.54466C9.19618 8.54466 9.19507 8.54466 9.19396 8.54466C9.19285 8.54466 9.19175 8.54466 9.19064 8.54466C9.18954 8.54466 9.18843 8.54466 9.18733 8.54466C9.18623 8.54466 9.18513 8.54466 9.18403 8.54466C9.18293 8.54466 9.18184 8.54466 9.18074 8.54466C9.17965 8.54466 9.17856 8.54466 9.17746 8.54466C9.17637 8.54466 9.17529 8.54466 9.1742 8.54466C9.17311 8.54466 9.17203 8.54466 9.17094 8.54466C9.16986 8.54466 9.16878 8.54466 9.1677 8.54466C9.16662 8.54466 9.16554 8.54466 9.16447 8.54466C9.16339 8.54466 9.16232 8.54466 9.16125 8.54466C9.16018 8.54466 9.15911 8.54466 9.15804 8.54466C9.15697 8.54466 9.15591 8.54466 9.15484 8.54466C9.15378 8.54466 9.15272 8.54466 9.15166 8.54466C9.1506 8.54466 9.14954 8.54466 9.14848 8.54466C9.14743 8.54466 9.14637 8.54466 9.14532 8.54466C9.14427 8.54466 9.14322 8.54466 9.14217 8.54466C9.14112 8.54466 9.14008 8.54466 9.13903 8.54466C9.13799 8.54466 9.13695 8.54466 9.13591 8.54466C9.13487 8.54466 9.13383 8.54466 9.13279 8.54466C9.13175 8.54466 9.13072 8.54466 9.12969 8.54466C9.12866 8.54466 9.12763 8.54466 9.1266 8.54466C9.12557 8.54466 9.12454 8.54466 9.12352 8.54466C9.12249 8.54466 9.12147 8.54466 9.12045 8.54466C9.11943 8.54466 9.11841 8.54466 9.1174 8.54466C9.11638 8.54466 9.11537 8.54466 9.11435 8.54466C9.11334 8.54466 9.11233 8.54466 9.11132 8.54466C9.11031 8.54466 9.10931 8.54466 9.1083 8.54466C9.1073 8.54466 9.1063 8.54466 9.1053 8.54466C9.1043 8.54466 9.1033 8.54466 9.1023 8.54466C9.10131 8.54466 9.10031 8.54466 9.09932 8.54466C9.09833 8.54466 9.09734 8.54466 9.09635 8.54466C9.09536 8.54466 9.09438 8.54466 9.09339 8.54466C9.09241 8.54466 9.09143 8.54466 9.09045 8.54466C9.08947 8.54466 9.08849 8.54466 9.08752 8.54466C9.08654 8.54466 9.08557 8.54466 9.0846 8.54466C9.08363 8.54466 9.08266 8.54466 9.08169 8.54466C9.08073 8.54466 9.07976 8.54466 9.0788 8.54466C9.07784 8.54466 9.07687 8.54466 9.07592 8.54466C9.07496 8.54466 9.074 8.54466 9.07305 8.54466C9.07209 8.54466 9.07114 8.54466 9.07019 8.54466C9.06924 8.54466 9.06829 8.54466 9.06735 8.54466C9.0664 8.54466 9.06546 8.54466 9.06452 8.54466C9.06358 8.54466 9.06264 8.54466 9.0617 8.54466C9.06076 8.54466 9.05983 8.54466 9.0589 8.54466C9.05796 8.54466 9.05703 8.54466 9.0561 8.54466V9.70538C9.05703 9.70538 9.05796 9.70538 9.0589 9.70538C9.05983 9.70538 9.06076 9.70538 9.0617 9.70538C9.06264 9.70538 9.06358 9.70538 9.06452 9.70538C9.06546 9.70538 9.0664 9.70538 9.06735 9.70538C9.06829 9.70538 9.06924 9.70538 9.07019 9.70538C9.07114 9.70538 9.07209 9.70538 9.07305 9.70538C9.074 9.70538 9.07496 9.70538 9.07592 9.70538C9.07687 9.70538 9.07784 9.70538 9.0788 9.70538C9.07976 9.70538 9.08073 9.70538 9.08169 9.70538C9.08266 9.70538 9.08363 9.70538 9.0846 9.70538C9.08557 9.70538 9.08654 9.70538 9.08752 9.70538C9.08849 9.70538 9.08947 9.70538 9.09045 9.70538C9.09143 9.70538 9.09241 9.70538 9.09339 9.70538C9.09438 9.70538 9.09536 9.70538 9.09635 9.70538C9.09734 9.70538 9.09833 9.70538 9.09932 9.70538C9.10031 9.70538 9.10131 9.70538 9.1023 9.70538C9.1033 9.70538 9.1043 9.70538 9.1053 9.70538C9.1063 9.70538 9.1073 9.70538 9.1083 9.70538C9.10931 9.70538 9.11031 9.70538 9.11132 9.70538C9.11233 9.70538 9.11334 9.70538 9.11435 9.70538C9.11537 9.70538 9.11638 9.70538 9.1174 9.70538C9.11841 9.70538 9.11943 9.70538 9.12045 9.70538C9.12147 9.70538 9.12249 9.70538 9.12352 9.70538C9.12454 9.70538 9.12557 9.70538 9.1266 9.70538C9.12763 9.70538 9.12866 9.70538 9.12969 9.70538C9.13072 9.70538 9.13175 9.70538 9.13279 9.70538C9.13383 9.70538 9.13487 9.70538 9.13591 9.70538C9.13695 9.70538 9.13799 9.70538 9.13903 9.70538C9.14008 9.70538 9.14112 9.70538 9.14217 9.70538C9.14322 9.70538 9.14427 9.70538 9.14532 9.70538C9.14637 9.70538 9.14743 9.70538 9.14848 9.70538C9.14954 9.70538 9.1506 9.70538 9.15166 9.70538C9.15272 9.70538 9.15378 9.70538 9.15484 9.70538C9.15591 9.70538 9.15697 9.70538 9.15804 9.70538C9.15911 9.70538 9.16018 9.70538 9.16125 9.70538C9.16232 9.70538 9.16339 9.70538 9.16447 9.70538C9.16554 9.70538 9.16662 9.70538 9.1677 9.70538C9.16878 9.70538 9.16986 9.70538 9.17094 9.70538C9.17203 9.70538 9.17311 9.70538 9.1742 9.70538C9.17529 9.70538 9.17637 9.70538 9.17746 9.70538C9.17856 9.70538 9.17965 9.70538 9.18074 9.70538C9.18184 9.70538 9.18293 9.70538 9.18403 9.70538C9.18513 9.70538 9.18623 9.70538 9.18733 9.70538C9.18843 9.70538 9.18954 9.70538 9.19064 9.70538C9.19175 9.70538 9.19285 9.70538 9.19396 9.70538C9.19507 9.70538 9.19618 9.70538 9.1973 9.70538C9.19841 9.70538 9.19952 9.70538 9.20064 9.70538C9.20176 9.70538 9.20287 9.70538 9.20399 9.70538C9.20511 9.70538 9.20624 9.70538 9.20736 9.70538C9.20848 9.70538 9.20961 9.70538 9.21074 9.70538C9.21186 9.70538 9.21299 9.70538 9.21412 9.70538C9.21526 9.70538 9.21639 9.70538 9.21752 9.70538C9.21866 9.70538 9.21979 9.70538 9.22093 9.70538C9.22207 9.70538 9.22321 9.70538 9.22435 9.70538C9.22549 9.70538 9.22664 9.70538 9.22778 9.70538C9.22893 9.70538 9.23008 9.70538 9.23123 9.70538C9.23237 9.70538 9.23352 9.70538 9.23468 9.70538C9.23583 9.70538 9.23698 9.70538 9.23814 9.70538C9.2393 9.70538 9.24045 9.70538 9.24161 9.70538C9.24277 9.70538 9.24393 9.70538 9.2451 9.70538C9.24626 9.70538 9.24742 9.70538 9.24859 9.70538C9.24976 9.70538 9.25093 9.70538 9.2521 9.70538C9.25326 9.70538 9.25444 9.70538 9.25561 9.70538C9.25678 9.70538 9.25796 9.70538 9.25914 9.70538C9.26031 9.70538 9.26149 9.70538 9.26267 9.70538C9.26385 9.70538 9.26503 9.70538 9.26622 9.70538C9.2674 9.70538 9.26858 9.70538 9.26977 9.70538C9.27096 9.70538 9.27215 9.70538 9.27334 9.70538C9.27453 9.70538 9.27572 9.70538 9.27691 9.70538C9.27811 9.70538 9.2793 9.70538 9.2805 9.70538C9.2817 9.70538 9.2829 9.70538 9.2841 9.70538C9.2853 9.70538 9.2865 9.70538 9.2877 9.70538C9.28891 9.70538 9.29011 9.70538 9.29132 9.70538C9.29252 9.70538 9.29373 9.70538 9.29494 9.70538C9.29615 9.70538 9.29737 9.70538 9.29858 9.70538C9.29979 9.70538 9.30101 9.70538 9.30223 9.70538C9.30344 9.70538 9.30466 9.70538 9.30588 9.70538C9.3071 9.70538 9.30832 9.70538 9.30955 9.70538C9.31077 9.70538 9.31199 9.70538 9.31322 9.70538C9.31445 9.70538 9.31567 9.70538 9.3169 9.70538C9.31813 9.70538 9.31937 9.70538 9.3206 9.70538C9.32183 9.70538 9.32307 9.70538 9.3243 9.70538C9.32554 9.70538 9.32677 9.70538 9.32801 9.70538C9.32925 9.70538 9.33049 9.70538 9.33174 9.70538C9.33298 9.70538 9.33422 9.70538 9.33547 9.70538C9.33671 9.70538 9.33796 9.70538 9.33921 9.70538C9.34046 9.70538 9.34171 9.70538 9.34296 9.70538C9.34421 9.70538 9.34546 9.70538 9.34672 9.70538C9.34797 9.70538 9.34923 9.70538 9.35049 9.70538C9.35175 9.70538 9.353 9.70538 9.35427 9.70538C9.35553 9.70538 9.35679 9.70538 9.35805 9.70538C9.35932 9.70538 9.36058 9.70538 9.36185 9.70538C9.36312 9.70538 9.36439 9.70538 9.36565 9.70538C9.36692 9.70538 9.3682 9.70538 9.36947 9.70538C9.37074 9.70538 9.37202 9.70538 9.37329 9.70538C9.37457 9.70538 9.37585 9.70538 9.37713 9.70538C9.3784 9.70538 9.37968 9.70538 9.38097 9.70538C9.38225 9.70538 9.38353 9.70538 9.38482 9.70538C9.3861 9.70538 9.38739 9.70538 9.38868 9.70538C9.38996 9.70538 9.39125 9.70538 9.39254 9.70538C9.39383 9.70538 9.39513 9.70538 9.39642 9.70538C9.39771 9.70538 9.39901 9.70538 9.4003 9.70538C9.4016 9.70538 9.4029 9.70538 9.4042 9.70538C9.4055 9.70538 9.4068 9.70538 9.4081 9.70538C9.4094 9.70538 9.41071 9.70538 9.41201 9.70538C9.41332 9.70538 9.41462 9.70538 9.41593 9.70538C9.41724 9.70538 9.41855 9.70538 9.41986 9.70538C9.42117 9.70538 9.42248 9.70538 9.42379 9.70538C9.42511 9.70538 9.42642 9.70538 9.42774 9.70538C9.42905 9.70538 9.43037 9.70538 9.43169 9.70538C9.43301 9.70538 9.43433 9.70538 9.43565 9.70538C9.43697 9.70538 9.4383 9.70538 9.43962 9.70538C9.44095 9.70538 9.44227 9.70538 9.4436 9.70538C9.44493 9.70538 9.44626 9.70538 9.44759 9.70538C9.44892 9.70538 9.45025 9.70538 9.45158 9.70538C9.45291 9.70538 9.45425 9.70538 9.45558 9.70538C9.45692 9.70538 9.45825 9.70538 9.45959 9.70538C9.46093 9.70538 9.46227 9.70538 9.46361 9.70538C9.46495 9.70538 9.46629 9.70538 9.46764 9.70538C9.46898 9.70538 9.47032 9.70538 9.47167 9.70538C9.47301 9.70538 9.47436 9.70538 9.47571 9.70538C9.47706 9.70538 9.47841 9.70538 9.47976 9.70538C9.48111 9.70538 9.48246 9.70538 9.48382 9.70538C9.48517 9.70538 9.48653 9.70538 9.48788 9.70538C9.48924 9.70538 9.4906 9.70538 9.49195 9.70538C9.49331 9.70538 9.49467 9.70538 9.49604 9.70538C9.4974 9.70538 9.49876 9.70538 9.50012 9.70538C9.50149 9.70538 9.50285 9.70538 9.50422 9.70538C9.50559 9.70538 9.50695 9.70538 9.50832 9.70538C9.50969 9.70538 9.51106 9.70538 9.51243 9.70538C9.5138 9.70538 9.51518 9.70538 9.51655 9.70538C9.51792 9.70538 9.5193 9.70538 9.52068 9.70538C9.52205 9.70538 9.52343 9.70538 9.52481 9.70538C9.52619 9.70538 9.52757 9.70538 9.52895 9.70538C9.53033 9.70538 9.53171 9.70538 9.53309 9.70538C9.53448 9.70538 9.53586 9.70538 9.53725 9.70538C9.53864 9.70538 9.54002 9.70538 9.54141 9.70538C9.5428 9.70538 9.54419 9.70538 9.54558 9.70538C9.54697 9.70538 9.54836 9.70538 9.54976 9.70538C9.55115 9.70538 9.55254 9.70538 9.55394 9.70538C9.55533 9.70538 9.55673 9.70538 9.55813 9.70538C9.55953 9.70538 9.56092 9.70538 9.56232 9.70538C9.56372 9.70538 9.56513 9.70538 9.56653 9.70538C9.56793 9.70538 9.56933 9.70538 9.57074 9.70538C9.57214 9.70538 9.57355 9.70538 9.57496 9.70538C9.57636 9.70538 9.57777 9.70538 9.57918 9.70538C9.58059 9.70538 9.582 9.70538 9.58341 9.70538C9.58482 9.70538 9.58624 9.70538 9.58765 9.70538C9.58906 9.70538 9.59048 9.70538 9.59189 9.70538C9.59331 9.70538 9.59473 9.70538 9.59614 9.70538C9.59756 9.70538 9.59898 9.70538 9.6004 9.70538C9.60182 9.70538 9.60324 9.70538 9.60466 9.70538C9.60609 9.70538 9.60751 9.70538 9.60894 9.70538C9.61036 9.70538 9.61179 9.70538 9.61321 9.70538C9.61464 9.70538 9.61607 9.70538 9.6175 9.70538C9.61892 9.70538 9.62035 9.70538 9.62179 9.70538C9.62322 9.70538 9.62465 9.70538 9.62608 9.70538C9.62751 9.70538 9.62895 9.70538 9.63038 9.70538C9.63182 9.70538 9.63325 9.70538 9.63469 9.70538C9.63613 9.70538 9.63757 9.70538 9.63901 9.70538C9.64045 9.70538 9.64189 9.70538 9.64333 9.70538C9.64477 9.70538 9.64621 9.70538 9.64765 9.70538C9.6491 9.70538 9.65054 9.70538 9.65199 9.70538C9.65343 9.70538 9.65488 9.70538 9.65632 9.70538C9.65777 9.70538 9.65922 9.70538 9.66067 9.70538C9.66212 9.70538 9.66357 9.70538 9.66502 9.70538C9.66647 9.70538 9.66792 9.70538 9.66938 9.70538C9.67083 9.70538 9.67228 9.70538 9.67374 9.70538C9.67519 9.70538 9.67665 9.70538 9.67811 9.70538C9.67956 9.70538 9.68102 9.70538 9.68248 9.70538C9.68394 9.70538 9.6854 9.70538 9.68686 9.70538C9.68832 9.70538 9.68978 9.70538 9.69125 9.70538C9.69271 9.70538 9.69417 9.70538 9.69564 9.70538C9.6971 9.70538 9.69857 9.70538 9.70003 9.70538C9.7015 9.70538 9.70297 9.70538 9.70444 9.70538C9.7059 9.70538 9.70737 9.70538 9.70884 9.70538C9.71031 9.70538 9.71179 9.70538 9.71326 9.70538C9.71473 9.70538 9.7162 9.70538 9.71768 9.70538C9.71915 9.70538 9.72062 9.70538 9.7221 9.70538C9.72358 9.70538 9.72505 9.70538 9.72653 9.70538C9.72801 9.70538 9.72948 9.70538 9.73096 9.70538C9.73244 9.70538 9.73392 9.70538 9.7354 9.70538C9.73688 9.70538 9.73836 9.70538 9.73985 9.70538C9.74133 9.70538 9.74281 9.70538 9.7443 9.70538C9.74578 9.70538 9.74727 9.70538 9.74875 9.70538C9.75024 9.70538 9.75173 9.70538 9.75321 9.70538C9.7547 9.70538 9.75619 9.70538 9.75768 9.70538C9.75917 9.70538 9.76066 9.70538 9.76215 9.70538C9.76364 9.70538 9.76513 9.70538 9.76662 9.70538C9.76812 9.70538 9.76961 9.70538 9.7711 9.70538C9.7726 9.70538 9.77409 9.70538 9.77559 9.70538C9.77708 9.70538 9.77858 9.70538 9.78008 9.70538C9.78157 9.70538 9.78307 9.70538 9.78457 9.70538C9.78607 9.70538 9.78757 9.70538 9.78907 9.70538C9.79057 9.70538 9.79207 9.70538 9.79357 9.70538C9.79508 9.70538 9.79658 9.70538 9.79808 9.70538C9.79959 9.70538 9.80109 9.70538 9.8026 9.70538C9.8041 9.70538 9.80561 9.70538 9.80711 9.70538C9.80862 9.70538 9.81013 9.70538 9.81164 9.70538C9.81314 9.70538 9.81465 9.70538 9.81616 9.70538C9.81767 9.70538 9.81918 9.70538 9.82069 9.70538C9.8222 9.70538 9.82372 9.70538 9.82523 9.70538C9.82674 9.70538 9.82825 9.70538 9.82977 9.70538C9.83128 9.70538 9.8328 9.70538 9.83431 9.70538C9.83583 9.70538 9.83734 9.70538 9.83886 9.70538C9.84038 9.70538 9.84189 9.70538 9.84341 9.70538C9.84493 9.70538 9.84645 9.70538 9.84797 9.70538C9.84949 9.70538 9.85101 9.70538 9.85253 9.70538C9.85405 9.70538 9.85557 9.70538 9.85709 9.70538C9.85862 9.70538 9.86014 9.70538 9.86166 9.70538C9.86319 9.70538 9.86471 9.70538 9.86623 9.70538C9.86776 9.70538 9.86929 9.70538 9.87081 9.70538C9.87234 9.70538 9.87386 9.70538 9.87539 9.70538C9.87692 9.70538 9.87845 9.70538 9.87998 9.70538C9.88151 9.70538 9.88303 9.70538 9.88456 9.70538C9.88609 9.70538 9.88763 9.70538 9.88916 9.70538C9.89069 9.70538 9.89222 9.70538 9.89375 9.70538C9.89528 9.70538 9.89682 9.70538 9.89835 9.70538C9.89989 9.70538 9.90142 9.70538 9.90295 9.70538C9.90449 9.70538 9.90602 9.70538 9.90756 9.70538C9.9091 9.70538 9.91063 9.70538 9.91217 9.70538C9.91371 9.70538 9.91525 9.70538 9.91678 9.70538C9.91832 9.70538 9.91986 9.70538 9.9214 9.70538C9.92294 9.70538 9.92448 9.70538 9.92602 9.70538C9.92756 9.70538 9.9291 9.70538 9.93065 9.70538C9.93219 9.70538 9.93373 9.70538 9.93527 9.70538C9.93682 9.70538 9.93836 9.70538 9.9399 9.70538C9.94145 9.70538 9.94299 9.70538 9.94454 9.70538C9.94608 9.70538 9.94763 9.70538 9.94918 9.70538C9.95072 9.70538 9.95227 9.70538 9.95382 9.70538C9.95536 9.70538 9.95691 9.70538 9.95846 9.70538C9.96001 9.70538 9.96156 9.70538 9.96311 9.70538C9.96465 9.70538 9.9662 9.70538 9.96775 9.70538C9.96931 9.70538 9.97086 9.70538 9.97241 9.70538C9.97396 9.70538 9.97551 9.70538 9.97706 9.70538C9.97861 9.70538 9.98017 9.70538 9.98172 9.70538C9.98327 9.70538 9.98483 9.70538 9.98638 9.70538C9.98794 9.70538 9.98949 9.70538 9.99105 9.70538C9.9926 9.70538 9.99416 9.70538 9.99571 9.70538C9.99727 9.70538 9.99883 9.70538 10.0004 9.70538C10.0019 9.70538 10.0035 9.70538 10.0051 9.70538C10.0066 9.70538 10.0082 9.70538 10.0097 9.70538C10.0113 9.70538 10.0128 9.70538 10.0144 9.70538C10.016 9.70538 10.0175 9.70538 10.0191 9.70538C10.0206 9.70538 10.0222 9.70538 10.0238 9.70538C10.0253 9.70538 10.0269 9.70538 10.0285 9.70538C10.03 9.70538 10.0316 9.70538 10.0331 9.70538C10.0347 9.70538 10.0363 9.70538 10.0378 9.70538C10.0394 9.70538 10.041 9.70538 10.0425 9.70538C10.0441 9.70538 10.0457 9.70538 10.0472 9.70538C10.0488 9.70538 10.0503 9.70538 10.0519 9.70538C10.0535 9.70538 10.055 9.70538 10.0566 9.70538C10.0582 9.70538 10.0597 9.70538 10.0613 9.70538C10.0629 9.70538 10.0645 9.70538 10.066 9.70538C10.0676 9.70538 10.0692 9.70538 10.0707 9.70538C10.0723 9.70538 10.0739 9.70538 10.0754 9.70538C10.077 9.70538 10.0786 9.70538 10.0801 9.70538C10.0817 9.70538 10.0833 9.70538 10.0849 9.70538C10.0864 9.70538 10.088 9.70538 10.0896 9.70538C10.0911 9.70538 10.0927 9.70538 10.0943 9.70538C10.0959 9.70538 10.0974 9.70538 10.099 9.70538C10.1006 9.70538 10.1021 9.70538 10.1037 9.70538C10.1053 9.70538 10.1069 9.70538 10.1084 9.70538C10.11 9.70538 10.1116 9.70538 10.1132 9.70538C10.1147 9.70538 10.1163 9.70538 10.1179 9.70538C10.1195 9.70538 10.121 9.70538 10.1226 9.70538C10.1242 9.70538 10.1258 9.70538 10.1273 9.70538C10.1289 9.70538 10.1305 9.70538 10.1321 9.70538C10.1336 9.70538 10.1352 9.70538 10.1368 9.70538C10.1384 9.70538 10.14 9.70538 10.1415 9.70538C10.1431 9.70538 10.1447 9.70538 10.1463 9.70538C10.1478 9.70538 10.1494 9.70538 10.151 9.70538C10.1526 9.70538 10.1542 9.70538 10.1557 9.70538C10.1573 9.70538 10.1589 9.70538 10.1605 9.70538C10.162 9.70538 10.1636 9.70538 10.1652 9.70538C10.1668 9.70538 10.1684 9.70538 10.1699 9.70538C10.1715 9.70538 10.1731 9.70538 10.1747 9.70538C10.1763 9.70538 10.1778 9.70538 10.1794 9.70538C10.181 9.70538 10.1826 9.70538 10.1842 9.70538C10.1858 9.70538 10.1873 9.70538 10.1889 9.70538C10.1905 9.70538 10.1921 9.70538 10.1937 9.70538C10.1952 9.70538 10.1968 9.70538 10.1984 9.70538C10.2 9.70538 10.2016 9.70538 10.2032 9.70538C10.2047 9.70538 10.2063 9.70538 10.2079 9.70538C10.2095 9.70538 10.2111 9.70538 10.2126 9.70538C10.2142 9.70538 10.2158 9.70538 10.2174 9.70538C10.219 9.70538 10.2206 9.70538 10.2221 9.70538C10.2237 9.70538 10.2253 9.70538 10.2269 9.70538C10.2285 9.70538 10.2301 9.70538 10.2316 9.70538C10.2332 9.70538 10.2348 9.70538 10.2364 9.70538C10.238 9.70538 10.2396 9.70538 10.2412 9.70538C10.2427 9.70538 10.2443 9.70538 10.2459 9.70538C10.2475 9.70538 10.2491 9.70538 10.2507 9.70538C10.2522 9.70538 10.2538 9.70538 10.2554 9.70538C10.257 9.70538 10.2586 9.70538 10.2602 9.70538C10.2617 9.70538 10.2633 9.70538 10.2649 9.70538C10.2665 9.70538 10.2681 9.70538 10.2697 9.70538C10.2713 9.70538 10.2728 9.70538 10.2744 9.70538C10.276 9.70538 10.2776 9.70538 10.2792 9.70538C10.2808 9.70538 10.2824 9.70538 10.2839 9.70538C10.2855 9.70538 10.2871 9.70538 10.2887 9.70538C10.2903 9.70538 10.2919 9.70538 10.2934 9.70538C10.295 9.70538 10.2966 9.70538 10.2982 9.70538C10.2998 9.70538 10.3014 9.70538 10.303 9.70538C10.3045 9.70538 10.3061 9.70538 10.3077 9.70538C10.3093 9.70538 10.3109 9.70538 10.3125 9.70538C10.3141 9.70538 10.3156 9.70538 10.3172 9.70538C10.3188 9.70538 10.3204 9.70538 10.322 9.70538C10.3236 9.70538 10.3251 9.70538 10.3267 9.70538C10.3283 9.70538 10.3299 9.70538 10.3315 9.70538C10.3331 9.70538 10.3347 9.70538 10.3362 9.70538C10.3378 9.70538 10.3394 9.70538 10.341 9.70538C10.3426 9.70538 10.3442 9.70538 10.3457 9.70538C10.3473 9.70538 10.3489 9.70538 10.3505 9.70538C10.3521 9.70538 10.3537 9.70538 10.3553 9.70538C10.3568 9.70538 10.3584 9.70538 10.36 9.70538C10.3616 9.70538 10.3632 9.70538 10.3648 9.70538C10.3663 9.70538 10.3679 9.70538 10.3695 9.70538C10.3711 9.70538 10.3727 9.70538 10.3743 9.70538C10.3758 9.70538 10.3774 9.70538 10.379 9.70538C10.3806 9.70538 10.3822 9.70538 10.3838 9.70538C10.3853 9.70538 10.3869 9.70538 10.3885 9.70538C10.3901 9.70538 10.3917 9.70538 10.3932 9.70538C10.3948 9.70538 10.3964 9.70538 10.398 9.70538C10.3996 9.70538 10.4012 9.70538 10.4027 9.70538C10.4043 9.70538 10.4059 9.70538 10.4075 9.70538C10.4091 9.70538 10.4106 9.70538 10.4122 9.70538C10.4138 9.70538 10.4154 9.70538 10.417 9.70538C10.4185 9.70538 10.4201 9.70538 10.4217 9.70538C10.4233 9.70538 10.4249 9.70538 10.4264 9.70538C10.428 9.70538 10.4296 9.70538 10.4312 9.70538C10.4328 9.70538 10.4343 9.70538 10.4359 9.70538C10.4375 9.70538 10.4391 9.70538 10.4407 9.70538C10.4422 9.70538 10.4438 9.70538 10.4454 9.70538C10.447 9.70538 10.4486 9.70538 10.4501 9.70538C10.4517 9.70538 10.4533 9.70538 10.4549 9.70538C10.4564 9.70538 10.458 9.70538 10.4596 9.70538C10.4612 9.70538 10.4627 9.70538 10.4643 9.70538C10.4659 9.70538 10.4675 9.70538 10.469 9.70538C10.4706 9.70538 10.4722 9.70538 10.4738 9.70538C10.4754 9.70538 10.4769 9.70538 10.4785 9.70538C10.4801 9.70538 10.4816 9.70538 10.4832 9.70538C10.4848 9.70538 10.4864 9.70538 10.4879 9.70538C10.4895 9.70538 10.4911 9.70538 10.4927 9.70538C10.4942 9.70538 10.4958 9.70538 10.4974 9.70538C10.499 9.70538 10.5005 9.70538 10.5021 9.70538C10.5037 9.70538 10.5052 9.70538 10.5068 9.70538C10.5084 9.70538 10.51 9.70538 10.5115 9.70538C10.5131 9.70538 10.5147 9.70538 10.5162 9.70538C10.5178 9.70538 10.5194 9.70538 10.5209 9.70538C10.5225 9.70538 10.5241 9.70538 10.5256 9.70538C10.5272 9.70538 10.5288 9.70538 10.5304 9.70538C10.5319 9.70538 10.5335 9.70538 10.5351 9.70538C10.5366 9.70538 10.5382 9.70538 10.5398 9.70538C10.5413 9.70538 10.5429 9.70538 10.5444 9.70538C10.546 9.70538 10.5476 9.70538 10.5491 9.70538C10.5507 9.70538 10.5523 9.70538 10.5538 9.70538C10.5554 9.70538 10.557 9.70538 10.5585 9.70538C10.5601 9.70538 10.5617 9.70538 10.5632 9.70538C10.5648 9.70538 10.5663 9.70538 10.5679 9.70538C10.5695 9.70538 10.571 9.70538 10.5726 9.70538C10.5741 9.70538 10.5757 9.70538 10.5773 9.70538C10.5788 9.70538 10.5804 9.70538 10.5819 9.70538C10.5835 9.70538 10.5851 9.70538 10.5866 9.70538C10.5882 9.70538 10.5897 9.70538 10.5913 9.70538C10.5928 9.70538 10.5944 9.70538 10.596 9.70538C10.5975 9.70538 10.5991 9.70538 10.6006 9.70538C10.6022 9.70538 10.6037 9.70538 10.6053 9.70538C10.6068 9.70538 10.6084 9.70538 10.61 9.70538C10.6115 9.70538 10.6131 9.70538 10.6146 9.70538C10.6162 9.70538 10.6177 9.70538 10.6193 9.70538C10.6208 9.70538 10.6224 9.70538 10.6239 9.70538C10.6255 9.70538 10.627 9.70538 10.6286 9.70538C10.6301 9.70538 10.6317 9.70538 10.6332 9.70538C10.6348 9.70538 10.6363 9.70538 10.6379 9.70538C10.6394 9.70538 10.641 9.70538 10.6425 9.70538C10.6441 9.70538 10.6456 9.70538 10.6471 9.70538C10.6487 9.70538 10.6502 9.70538 10.6518 9.70538C10.6533 9.70538 10.6549 9.70538 10.6564 9.70538C10.658 9.70538 10.6595 9.70538 10.661 9.70538C10.6626 9.70538 10.6641 9.70538 10.6657 9.70538C10.6672 9.70538 10.6687 9.70538 10.6703 9.70538C10.6718 9.70538 10.6734 9.70538 10.6749 9.70538C10.6764 9.70538 10.678 9.70538 10.6795 9.70538C10.6811 9.70538 10.6826 9.70538 10.6841 9.70538C10.6857 9.70538 10.6872 9.70538 10.6887 9.70538C10.6903 9.70538 10.6918 9.70538 10.6933 9.70538C10.6949 9.70538 10.6964 9.70538 10.6979 9.70538C10.6995 9.70538 10.701 9.70538 10.7025 9.70538C10.7041 9.70538 10.7056 9.70538 10.7071 9.70538C10.7087 9.70538 10.7102 9.70538 10.7117 9.70538C10.7133 9.70538 10.7148 9.70538 10.7163 9.70538C10.7178 9.70538 10.7194 9.70538 10.7209 9.70538C10.7224 9.70538 10.7239 9.70538 10.7255 9.70538C10.727 9.70538 10.7285 9.70538 10.73 9.70538C10.7316 9.70538 10.7331 9.70538 10.7346 9.70538C10.7361 9.70538 10.7377 9.70538 10.7392 9.70538C10.7407 9.70538 10.7422 9.70538 10.7437 9.70538C10.7453 9.70538 10.7468 9.70538 10.7483 9.70538C10.7498 9.70538 10.7513 9.70538 10.7528 9.70538C10.7544 9.70538 10.7559 9.70538 10.7574 9.70538C10.7589 9.70538 10.7604 9.70538 10.7619 9.70538C10.7635 9.70538 10.765 9.70538 10.7665 9.70538C10.768 9.70538 10.7695 9.70538 10.771 9.70538C10.7725 9.70538 10.774 9.70538 10.7756 9.70538C10.7771 9.70538 10.7786 9.70538 10.7801 9.70538C10.7816 9.70538 10.7831 9.70538 10.7846 9.70538C10.7861 9.70538 10.7876 9.70538 10.7891 9.70538C10.7906 9.70538 10.7921 9.70538 10.7936 9.70538C10.7951 9.70538 10.7966 9.70538 10.7981 9.70538C10.7996 9.70538 10.8012 9.70538 10.8027 9.70538C10.8042 9.70538 10.8057 9.70538 10.8072 9.70538C10.8087 9.70538 10.8102 9.70538 10.8116 9.70538C10.8131 9.70538 10.8146 9.70538 10.8161 9.70538C10.8176 9.70538 10.8191 9.70538 10.8206 9.70538C10.8221 9.70538 10.8236 9.70538 10.8251 9.70538C10.8266 9.70538 10.8281 9.70538 10.8296 9.70538C10.8311 9.70538 10.8326 9.70538 10.8341 9.70538C10.8355 9.70538 10.837 9.70538 10.8385 9.70538C10.84 9.70538 10.8415 9.70538 10.843 9.70538C10.8445 9.70538 10.846 9.70538 10.8474 9.70538C10.8489 9.70538 10.8504 9.70538 10.8519 9.70538C10.8534 9.70538 10.8549 9.70538 10.8563 9.70538C10.8578 9.70538 10.8593 9.70538 10.8608 9.70538C10.8623 9.70538 10.8637 9.70538 10.8652 9.70538C10.8667 9.70538 10.8682 9.70538 10.8696 9.70538C10.8711 9.70538 10.8726 9.70538 10.8741 9.70538C10.8755 9.70538 10.877 9.70538 10.8785 9.70538C10.88 9.70538 10.8814 9.70538 10.8829 9.70538C10.8844 9.70538 10.8858 9.70538 10.8873 9.70538C10.8888 9.70538 10.8902 9.70538 10.8917 9.70538C10.8932 9.70538 10.8946 9.70538 10.8961 9.70538C10.8976 9.70538 10.899 9.70538 10.9005 9.70538C10.902 9.70538 10.9034 9.70538 10.9049 9.70538C10.9064 9.70538 10.9078 9.70538 10.9093 9.70538C10.9107 9.70538 10.9122 9.70538 10.9137 9.70538C10.9151 9.70538 10.9166 9.70538 10.918 9.70538C10.9195 9.70538 10.9209 9.70538 10.9224 9.70538C10.9238 9.70538 10.9253 9.70538 10.9267 9.70538C10.9282 9.70538 10.9296 9.70538 10.9311 9.70538C10.9325 9.70538 10.934 9.70538 10.9354 9.70538C10.9369 9.70538 10.9383 9.70538 10.9398 9.70538C10.9412 9.70538 10.9427 9.70538 10.9441 9.70538C10.9456 9.70538 10.947 9.70538 10.9484 9.70538C10.9499 9.70538 10.9513 9.70538 10.9528 9.70538C10.9542 9.70538 10.9556 9.70538 10.9571 9.70538C10.9585 9.70538 10.96 9.70538 10.9614 9.70538C10.9628 9.70538 10.9643 9.70538 10.9657 9.70538C10.9671 9.70538 10.9686 9.70538 10.97 9.70538C10.9714 9.70538 10.9729 9.70538 10.9743 9.70538C10.9757 9.70538 10.9771 9.70538 10.9786 9.70538C10.98 9.70538 10.9814 9.70538 10.9829 9.70538C10.9843 9.70538 10.9857 9.70538 10.9871 9.70538C10.9885 9.70538 10.99 9.70538 10.9914 9.70538C10.9928 9.70538 10.9942 9.70538 10.9956 9.70538C10.9971 9.70538 10.9985 9.70538 10.9999 9.70538C11.0013 9.70538 11.0027 9.70538 11.0041 9.70538C11.0056 9.70538 11.007 9.70538 11.0084 9.70538C11.0098 9.70538 11.0112 9.70538 11.0126 9.70538C11.014 9.70538 11.0154 9.70538 11.0168 9.70538C11.0183 9.70538 11.0197 9.70538 11.0211 9.70538C11.0225 9.70538 11.0239 9.70538 11.0253 9.70538C11.0267 9.70538 11.0281 9.70538 11.0295 9.70538C11.0309 9.70538 11.0323 9.70538 11.0337 9.70538C11.0351 9.70538 11.0365 9.70538 11.0379 9.70538C11.0393 9.70538 11.0407 9.70538 11.0421 9.70538C11.0434 9.70538 11.0448 9.70538 11.0462 9.70538C11.0476 9.70538 11.049 9.70538 11.0504 9.70538C11.0518 9.70538 11.0532 9.70538 11.0546 9.70538C11.056 9.70538 11.0573 9.70538 11.0587 9.70538C11.0601 9.70538 11.0615 9.70538 11.0629 9.70538C11.0643 9.70538 11.0656 9.70538 11.067 9.70538C11.0684 9.70538 11.0698 9.70538 11.0711 9.70538C11.0725 9.70538 11.0739 9.70538 11.0753 9.70538C11.0767 9.70538 11.078 9.70538 11.0794 9.70538C11.0808 9.70538 11.0821 9.70538 11.0835 9.70538C11.0849 9.70538 11.0862 9.70538 11.0876 9.70538C11.089 9.70538 11.0903 9.70538 11.0917 9.70538C11.0931 9.70538 11.0944 9.70538 11.0958 9.70538C11.0972 9.70538 11.0985 9.70538 11.0999 9.70538C11.1012 9.70538 11.1026 9.70538 11.104 9.70538C11.1053 9.70538 11.1067 9.70538 11.108 9.70538C11.1094 9.70538 11.1107 9.70538 11.1121 9.70538C11.1134 9.70538 11.1148 9.70538 11.1161 9.70538C11.1175 9.70538 11.1188 9.70538 11.1202 9.70538C11.1215 9.70538 11.1229 9.70538 11.1242 9.70538C11.1256 9.70538 11.1269 9.70538 11.1282 9.70538C11.1296 9.70538 11.1309 9.70538 11.1323 9.70538C11.1336 9.70538 11.1349 9.70538 11.1363 9.70538C11.1376 9.70538 11.1389 9.70538 11.1403 9.70538C11.1416 9.70538 11.1429 9.70538 11.1443 9.70538C11.1456 9.70538 11.1469 9.70538 11.1483 9.70538C11.1496 9.70538 11.1509 9.70538 11.1522 9.70538C11.1536 9.70538 11.1549 9.70538 11.1562 9.70538C11.1575 9.70538 11.1589 9.70538 11.1602 9.70538C11.1615 9.70538 11.1628 9.70538 11.1641 9.70538C11.1655 9.70538 11.1668 9.70538 11.1681 9.70538C11.1694 9.70538 11.1707 9.70538 11.172 9.70538C11.1733 9.70538 11.1746 9.70538 11.176 9.70538C11.1773 9.70538 11.1786 9.70538 11.1799 9.70538C11.1812 9.70538 11.1825 9.70538 11.1838 9.70538C11.1851 9.70538 11.1864 9.70538 11.1877 9.70538C11.189 9.70538 11.1903 9.70538 11.1916 9.70538C11.1929 9.70538 11.1942 9.70538 11.1955 9.70538C11.1968 9.70538 11.1981 9.70538 11.1994 9.70538C11.2006 9.70538 11.2019 9.70538 11.2032 9.70538C11.2045 9.70538 11.2058 9.70538 11.2071 9.70538C11.2084 9.70538 11.2097 9.70538 11.2109 9.70538C11.2122 9.70538 11.2135 9.70538 11.2148 9.70538C11.2161 9.70538 11.2173 9.70538 11.2186 9.70538C11.2199 9.70538 11.2212 9.70538 11.2224 9.70538C11.2237 9.70538 11.225 9.70538 11.2263 9.70538V8.54466ZM10.6459 7.25V9.12502H11.8066V7.25H10.6459Z" fill="#232323"></path></g><defs><clipPath id="clip0_502_34897"><rect width="20" height="20" fill="white"></rect></clipPath></defs></svg>