<svg width="20" height="20" viewBox="0 0 24 24" fill="none" xmlns="http://www.w3.org/2000/svg"><g clip-path="url(#clip0_502_34886)"><path d="M10 12.5C11.3807 12.5 12.5 11.3807 12.5 10C12.5 8.61932 11.3807 7.50003 10 7.50003C8.61929 7.50003 7.5 8.61932 7.5 10C7.5 11.3807 8.61929 12.5 10 12.5Z" stroke="#232323" stroke-width="1.25" stroke-linecap="round" stroke-linejoin="round"></path><path d="M10 15C12.7614 15 15 12.7615 15 10C15 7.23861 12.7614 5.00003 10 5.00003C7.23858 5.00003 5 7.23861 5 10C5 12.7615 7.23858 15 10 15Z" stroke="#232323" stroke-width="1.25" stroke-linecap="round" stroke-linejoin="round"></path><path d="M10 17.5C14.1421 17.5 17.5 14.1422 17.5 10C17.5 5.85789 14.1421 2.50003 10 2.50003C5.85786 2.50003 2.5 5.85789 2.5 10C2.5 14.1422 5.85786 17.5 10 17.5Z" stroke="#232323" stroke-width="1.25" stroke-linecap="round" stroke-linejoin="round"></path><path d="M10 7.18753V5.00003M11.5441 12.1094L12.8309 13.75M12.45 9.07425L14.375 8.28128M8.48676 12.1367L7.16912 13.75M7.55 9.07425L5.625 8.28128" stroke="#232323" stroke-width="1.25" stroke-linecap="round" stroke-linejoin="round"></path></g><defs><clipPath id="clip0_502_34886"><rect width="20" height="20" fill="white"></rect></clipPath></defs></svg>