<svg width="20" height="20" viewBox="0 0 24 24" fill="none" xmlns="http://www.w3.org/2000/svg"><g clip-path="url(#clip0_502_34911)"><path d="M5.83354 15.0001C4.79377 15.0001 3.79659 14.605 3.06136 13.9017C2.32613 13.1985 1.91309 12.2447 1.91309 11.2501C1.91309 10.2555 2.32613 9.3017 3.06136 8.59844C3.79659 7.89518 4.79377 7.50009 5.83354 7.50009C6.07911 6.40607 6.79751 5.44466 7.8307 4.82735C8.34228 4.52169 8.91575 4.30971 9.51835 4.20352C10.121 4.09732 10.7409 4.09899 11.3428 4.20843C11.9447 4.31786 12.5167 4.53292 13.0263 4.84132C13.5358 5.14973 13.9729 5.54544 14.3125 6.00587C14.6521 6.46629 14.8877 6.98241 15.0057 7.52476C15.1237 8.0671 15.1218 8.62506 15.0002 9.16676H15.8335C16.6071 9.16676 17.349 9.47405 17.8959 10.021C18.4429 10.568 18.7502 11.3099 18.7502 12.0834C18.7502 12.857 18.4429 13.5988 17.8959 14.1458C17.349 14.6928 16.6071 15.0001 15.8335 15.0001" stroke="#232323" stroke-width="1.25" stroke-linecap="round" stroke-linejoin="round"></path><path d="M9.1665 10.8334V12.5001M9.1665 15.0001V16.6667M12.4998 12.5001V14.1667M12.4998 16.6667V18.3334" stroke="#232323" stroke-width="1.25" stroke-linecap="round" stroke-linejoin="round"></path></g><defs><clipPath id="clip0_502_34911"><rect width="20" height="20" fill="white"></rect></clipPath></defs></svg>