<svg width="20" height="20" viewBox="0 0 24 24" fill="none" xmlns="http://www.w3.org/2000/svg"><g clip-path="url(#clip0_502_34923)"><path d="M7.5 14.1667C7.5 15.0871 6.75381 15.8333 5.83333 15.8333C4.91286 15.8333 4.16667 15.0871 4.16667 14.1667M7.5 14.1667C7.5 13.2462 6.75381 12.5 5.83333 12.5C4.91286 12.5 4.16667 13.2462 4.16667 14.1667M7.5 14.1667H12.5M4.16667 14.1667L2.5 14.1667V9.16667M15.8333 14.1667C15.8333 15.0871 15.0871 15.8333 14.1667 15.8333C13.2462 15.8333 12.5 15.0871 12.5 14.1667M15.8333 14.1667C15.8333 13.2462 15.0871 12.5 14.1667 12.5C13.2462 12.5 12.5 13.2462 12.5 14.1667M15.8333 14.1667L17.5 14.1667V10.8333C17.5 10.3913 17.3244 9.96738 17.0118 9.65482C16.6993 9.34226 16.2754 9.16667 15.8333 9.16667H15M2.5 9.16667L4.16667 5H5.625M2.5 9.16667H15M2.5 9.16667H10M15 9.16667L11.6667 5H10V9.16667M15 9.16667H10" stroke="#232323" stroke-width="1.25" stroke-linecap="round" stroke-linejoin="round"></path><path d="M6.46777 2.34436L11.4366 4.7999" stroke="#232323" stroke-width="1.23001" stroke-linecap="round" stroke-linejoin="round"></path></g><defs><clipPath id="clip0_502_34923"><rect width="20" height="20" fill="white"></rect></clipPath></defs></svg>