<svg width="20" height="20" viewBox="0 0 24 24" fill="none" xmlns="http://www.w3.org/2000/svg"><g clip-path="url(#clip0_502_34741)"><path d="M4.74512 5.77771H15.8939" stroke="#232323" stroke-width="1.25" stroke-linecap="round" stroke-linejoin="round"></path><path d="M7.2931 2.599L5.57422 6.03068V8.60444H6.62611H15.0281V6.03068L13.3092 2.599H7.2931Z" stroke="#232323" stroke-width="1.25" stroke-linejoin="round"></path><path d="M15.0282 8.58752V10.3201H12.9189V8.58752" stroke="#232323" stroke-width="1.25" stroke-linejoin="round"></path><path d="M7.68345 8.58752V10.3201H5.57422V8.58752" stroke="#232323" stroke-width="1.25" stroke-linejoin="round"></path><path d="M12.4995 17.3335C12.0953 17.1884 11.7678 16.9962 11.5453 16.7736C11.3228 16.5509 11.2119 16.3046 11.2224 16.0557C11.2119 15.8069 11.3228 15.5605 11.5453 15.3379C11.7678 15.1153 12.0953 14.9231 12.4995 14.7779C12.9037 14.6328 13.2311 14.4406 13.4536 14.218C13.6762 13.9954 13.787 13.749 13.7766 13.5002C13.787 13.2513 13.6762 13.0049 13.4536 12.7823C13.2311 12.5597 12.9037 12.3675 12.4995 12.2224" stroke="#232323" stroke-width="1.25" stroke-linecap="round" stroke-linejoin="round"></path><path d="M7.49946 17.3335C7.09526 17.1884 6.76777 16.9962 6.54527 16.7736C6.32276 16.5509 6.21193 16.3046 6.22235 16.0557C6.21193 15.8069 6.32276 15.5605 6.54527 15.3379C6.76777 15.1153 7.09526 14.9231 7.49946 14.7779C7.90365 14.6328 8.23114 14.4406 8.45365 14.218C8.67616 13.9954 8.78698 13.749 8.77656 13.5002C8.78698 13.2513 8.67616 13.0049 8.45365 12.7823C8.23114 12.5597 7.90365 12.3675 7.49946 12.2224" stroke="#232323" stroke-width="1.25" stroke-linecap="round" stroke-linejoin="round"></path></g><defs><clipPath id="clip0_502_34741"><rect width="20" height="20" fill="white"></rect></clipPath></defs></svg>