<svg width="20" height="20" viewBox="0 0 17 16" fill="none" xmlns="http://www.w3.org/2000/svg"><g clip-path="url(#clip0_1970_1308)"><path d="M11.6667 7.33334H5.00008C4.2637 7.33334 3.66675 7.9303 3.66675 8.66668V12.6667C3.66675 13.4031 4.2637 14 5.00008 14H11.6667C12.4031 14 13.0001 13.4031 13.0001 12.6667V8.66668C13.0001 7.9303 12.4031 7.33334 11.6667 7.33334Z" stroke="#232323" stroke-linecap="round" stroke-linejoin="round"></path><path d="M8.33341 11.3333C8.7016 11.3333 9.00008 11.0349 9.00008 10.6667C9.00008 10.2985 8.7016 10 8.33341 10C7.96522 10 7.66675 10.2985 7.66675 10.6667C7.66675 11.0349 7.96522 11.3333 8.33341 11.3333Z" stroke="#232323" stroke-linecap="round" stroke-linejoin="round"></path><path d="M5.66675 7.33333V4.66667C5.66675 3.95942 5.9477 3.28115 6.4478 2.78105C6.94789 2.28095 7.62617 2 8.33341 2C9.04066 2 9.71894 2.28095 10.219 2.78105C10.7191 3.28115 11.0001 3.95942 11.0001 4.66667V7.33333" stroke="#232323" stroke-linecap="round" stroke-linejoin="round"></path></g><defs><clipPath id="clip0_1970_1308"><rect width="16" height="16" fill="#232323" transform="translate(0.333374)"></rect></clipPath></defs></svg>