<svg width="60" height="60" viewBox="0 0 60 60" fill="none" xmlns="http://www.w3.org/2000/svg"><rect width="60" height="60" rx="30" fill="#BCFB92"></rect><path d="M45.4 42.9063H40.5V39.8063H45.4V42.9063Z" fill="#ABABAB"></path><path d="M44.9138 19.7836C44.8497 18.95 44.1546 18.3063 43.3185 18.3063H20.2521C19.1275 18.3063 18.2239 19.2332 18.2528 20.3575L18.8002 41.7226C18.8002 42.3763 19.3608 42.9063 20.0524 42.9063H40.6571C41.1913 42.9063 41.6979 42.669 42.0399 42.2586L43.5002 40.5063L45.3479 42.9063C46.0395 42.9063 46.6002 42.3763 46.6002 41.7226L44.9138 19.7836Z" fill="#C2C2C2"></path><path d="M44.9138 19.7836C44.8497 18.95 44.1546 18.3063 43.3185 18.3063H20.2521C19.1275 18.3063 18.2239 19.2332 18.2528 20.3575L18.8002 41.7226C18.8002 42.3763 19.3608 42.9063 20.0524 42.9063H40.6571C41.1913 42.9063 41.6979 42.669 42.0399 42.2586L43.5002 40.5063L45.3479 42.9063C46.0395 42.9063 46.6002 42.3763 46.6002 41.7226L44.9138 19.7836Z" fill="url(#paint0_linear_1521_6725)" fill-opacity="0.22"></path><path d="M40.1006 40.5063H43.5006L42.2191 42.3155C41.9566 42.686 41.5307 42.9063 41.0766 42.9063H40.1006V40.5063Z" fill="#D1D1D1"></path><path d="M44.917 20.1494C45.066 19.1802 44.3162 18.3063 43.3356 18.3063H18.7164C17.7292 18.3063 16.8896 19.0266 16.7396 20.0024L13.4004 41.7226C13.4004 42.3763 13.961 42.9063 14.6526 42.9063H40.3481C41.0397 42.9063 41.6004 42.3763 41.6004 41.7226L44.917 20.1494Z" fill="#DCDCDC"></path><path d="M44.5158 20.1505C44.6655 19.181 43.9155 18.3063 42.9345 18.3063H18.7154C17.7287 18.3063 16.8895 19.0259 16.7389 20.001L13.6006 40.3226C13.6006 40.9763 14.1612 41.5063 14.8528 41.5063H40.1483C40.8399 41.5063 41.4006 40.9763 41.4006 40.3226L44.5158 20.1505Z" fill="white"></path><path d="M44.5166 20.1505C44.6663 19.181 43.9163 18.3063 42.9353 18.3063H18.7162C17.7295 18.3063 16.8902 19.0259 16.7396 20.001L16.1514 23.8104C16.1514 23.8104 43.9508 23.8104 43.9514 23.8104L44.5166 20.1505Z" fill="#018444"></path><path d="M16.2576 23.1224L16.1514 23.8104C16.1514 23.8104 43.9508 23.8104 43.9514 23.8104L44.0576 23.1224H16.2576Z" fill="#016E38"></path><path d="M39.4002 26.5063L37.2002 40.4063" stroke="#EDEDED" stroke-width="0.2"></path><path d="M35.4002 26.5063L33.2002 40.4063" stroke="#EDEDED" stroke-width="0.2"></path><path d="M31.4002 26.5063L29.2002 40.4063" stroke="#EDEDED" stroke-width="0.2"></path><path d="M27.4002 26.5063L25.2002 40.4063" stroke="#EDEDED" stroke-width="0.2"></path><path d="M23.4002 26.5063L21.2002 40.4063" stroke="#EDEDED" stroke-width="0.2"></path><path d="M19.4002 26.5063L17.2002 40.4063" stroke="#EDEDED" stroke-width="0.2"></path><path d="M42.0013 29.2718L16.2001 29.2717" stroke="#EDEDED" stroke-width="0.2"></path><path d="M41.4016 33.2027L15.6005 33.2027" stroke="#EDEDED" stroke-width="0.2"></path><path d="M41.0013 37.1336L15.2001 37.1336" stroke="#EDEDED" stroke-width="0.2"></path><circle cx="22.601" cy="20.3063" r="0.6" fill="#016E38"></circle><path d="M24.4008 18.3063C24.4008 17.3122 23.5949 16.5063 22.6008 16.5063C21.6067 16.5063 20.8008 17.3122 20.8008 18.3063C20.8008 19.3004 21.6067 20.1063 22.6008 20.1063" stroke="#1E852D" stroke-width="0.6"></path><circle cx="39.0004" cy="20.3063" r="0.6" fill="#016E38"></circle><path d="M40.8002 18.3063C40.8002 17.3122 39.9943 16.5063 39.0002 16.5063C38.0061 16.5063 37.2002 17.3122 37.2002 18.3063C37.2002 19.3004 38.0061 20.1063 39.0002 20.1063" stroke="#1E852D" stroke-width="0.6"></path><circle cx="30.8002" cy="20.3063" r="0.6" fill="#016E38"></circle><path d="M32.6 18.3063C32.6 17.3122 31.7941 16.5063 30.8 16.5063C29.8059 16.5063 29 17.3122 29 18.3063C29 19.3004 29.8059 20.1063 30.8 20.1063" stroke="#1E852D" stroke-width="0.6"></path><defs><linearGradient id="paint0_linear_1521_6725" x1="32.4002" y1="18.3063" x2="32.4002" y2="42.9063" gradientUnits="userSpaceOnUse"><stop></stop><stop offset="1" stop-opacity="0"></stop></linearGradient></defs></svg>