<svg width="105" height="105" viewBox="0 0 105 105" fill="none" xmlns="http://www.w3.org/2000/svg">
<circle cx="52.5" cy="52.5" r="52.5" fill="black"/>
<g clip-path="url(#clip0_617_85)">
<path d="M52.5 101C79.2858 101 101 79.2858 101 52.5C101 25.7142 79.2858 4 52.5 4C25.7142 4 4 25.7142 4 52.5C4 79.2858 25.7142 101 52.5 101Z" fill="#ECEFF1"/>
<path d="M87.7895 80.8611C85.6797 79.1939 83.1092 77.9935 80.3204 77.4115L67.0254 74.744C65.631 74.4773 64.6246 73.2284 64.6246 71.7734V68.724C65.4794 67.5236 66.2858 65.9292 67.1284 64.262C67.7832 62.9707 68.7714 61.0246 69.2625 60.5214C71.9542 57.8175 74.555 54.7802 75.3613 50.8639C76.1131 47.19 75.3734 45.2621 74.5065 43.7101C74.5065 39.8362 74.3853 34.9862 73.4698 31.4578C73.3607 26.6805 72.4938 23.9949 70.3113 21.6426C68.7714 19.9754 66.504 19.5874 64.6792 19.2782C63.9638 19.157 62.9756 18.9872 62.6119 18.7932C59.3806 17.0472 56.1856 16.1924 52.3723 16.1257C44.388 16.4531 34.5728 21.5335 31.2862 30.5909C30.2677 33.3493 30.3708 37.878 30.4556 41.5155L30.3768 43.704C29.5948 45.2318 28.8248 47.1718 29.5826 50.8578C30.3829 54.7802 32.9837 57.8236 35.7239 60.5639C36.1726 61.0246 37.185 62.9889 37.8519 64.2862C38.7067 65.9474 39.5191 67.5357 40.3739 68.73V71.7795C40.3739 73.2284 39.3614 74.4773 37.961 74.7501L24.6538 77.4176C21.8833 78.0057 19.3128 79.1939 17.2091 80.8611C16.5543 81.3885 16.1421 82.1585 16.0754 82.9951C16.0087 83.8317 16.2876 84.6502 16.8514 85.2746C25.9088 95.2656 38.8999 101.001 52.4989 101.001C66.0978 101.001 79.0943 95.2717 88.1464 85.2746C88.7102 84.6502 88.9951 83.8257 88.9224 82.989C88.8557 82.1524 88.4434 81.3825 87.7887 80.8611H87.7895Z" fill="#1E1E1E"/>
</g>
<defs>
<clipPath id="clip0_617_85">
<rect width="97" height="97" fill="white" transform="translate(4 4)"/>
</clipPath>
</defs>
</svg>
