<svg width="94" height="60" viewBox="0 0 94 60" fill="none" xmlns="http://www.w3.org/2000/svg">
<path d="M19.3738 0H93.074L73.574 59.927H0.000244141L19.3738 0Z" fill="#2F4EDA"/>
<mask id="mask0_487_3" style="mask-type:luminance" maskUnits="userSpaceOnUse" x="35" y="19" width="23" height="23">
<path d="M57.342 40.748C57.1502 40.9399 56.9224 41.0921 56.6717 41.196C56.421 41.2998 56.1524 41.3533 55.881 41.3533C55.6097 41.3533 55.341 41.2998 55.0903 41.196C54.8397 41.0921 54.6119 40.9399 54.42 40.748L50.774 37.102C49.2293 38.1018 47.429 38.6347 45.589 38.637C44.3227 38.637 43.0688 38.3876 41.899 37.903C40.7291 37.4184 39.6661 36.708 38.7708 35.8126C37.8754 34.9172 37.1652 33.8541 36.6807 32.6842C36.1962 31.5142 35.9469 30.2603 35.947 28.994C35.9473 26.437 36.9633 23.9848 38.7715 22.1768C40.5797 20.3687 43.032 19.353 45.589 19.353C48.146 19.353 50.5982 20.3688 52.4062 22.1768C54.2143 23.9848 55.23 26.4371 55.23 28.994C55.227 30.8339 54.6941 32.634 53.695 34.179L57.341 37.825C57.5332 38.0168 57.6858 38.2445 57.7899 38.4953C57.894 38.746 57.9476 39.0148 57.9477 39.2863C57.9478 39.5578 57.8943 39.8267 57.7904 40.0775C57.6865 40.3283 57.5341 40.5562 57.342 40.748ZM45.589 22.108C43.7625 22.108 42.0107 22.8336 40.7192 24.1252C39.4276 25.4167 38.702 27.1685 38.702 28.995C38.702 30.8216 39.4276 32.5733 40.7192 33.8649C42.0107 35.1564 43.7625 35.882 45.589 35.882C46.4935 35.8822 47.3891 35.7041 48.2247 35.3581C49.0604 35.012 49.8196 34.5047 50.4592 33.8652C51.0987 33.2256 51.606 32.4664 51.9521 31.6307C52.2981 30.7951 52.4761 29.8995 52.476 28.995C52.4761 28.0906 52.2981 27.195 51.9521 26.3593C51.606 25.5237 51.0987 24.7644 50.4592 24.1249C49.8196 23.4853 49.0604 22.9781 48.2247 22.632C47.3891 22.2859 46.4935 22.1079 45.589 22.108Z" fill="white"/>
</mask>
<g mask="url(#mask0_487_3)">
<mask id="mask1_487_3" style="mask-type:luminance" maskUnits="userSpaceOnUse" x="-1118" y="-653" width="1921" height="2216">
<path d="M-1117.05 1562.35H802.947V-652.647H-1117.05V1562.35Z" fill="white"/>
</mask>
<g mask="url(#mask1_487_3)">
<path d="M30.947 14.353H62.947V46.353H30.947V14.353Z" fill="#EDEDE3"/>
</g>
</g>
</svg>
