<svg xmlns="http://www.w3.org/2000/svg" width="193" height="261" viewBox="0 0 193 261" version="1.1">
	<path d="M 63.571 1.571 C 62.707 2.436, 62 3.470, 62 3.871 C 62 4.271, 60.399 5.177, 58.443 5.884 C 51.700 8.323, 56.249 12.958, 65.412 12.985 C 70.069 12.999, 79.465 15.173, 83.236 17.109 C 84.191 17.599, 86.666 18.016, 88.736 18.035 C 90.806 18.055, 93.625 18.714, 95 19.500 C 96.375 20.286, 98.893 20.945, 100.595 20.965 C 102.314 20.984, 104.445 21.834, 105.388 22.876 C 106.322 23.908, 108.697 25.014, 110.667 25.333 C 112.637 25.653, 114.980 26.566, 115.874 27.363 C 116.768 28.159, 120.417 29.989, 123.983 31.430 C 127.549 32.871, 132.049 35.549, 133.983 37.382 C 135.917 39.214, 139.571 42.104, 142.101 43.803 C 150.638 49.534, 159.533 61.216, 169.659 80 C 175.948 91.664, 176.439 93.035, 177.001 100.500 C 177.452 106.482, 178.219 109.507, 180.044 112.493 C 182.677 116.801, 182.971 119.181, 183.196 138 C 183.309 147.458, 182.948 150.604, 181.167 155.718 C 179.975 159.139, 179 163.201, 179 164.747 C 179 168.189, 172.729 181.576, 169.512 185 C 168.220 186.375, 165.565 190.875, 163.612 195 C 158.985 204.770, 147.740 217.565, 139 223.004 C 125.439 231.444, 125.497 231.429, 105.263 231.794 C 85.424 232.152, 84.517 232.001, 65.067 225.077 C 58.224 222.641, 55.583 221.061, 51.067 216.705 C 48.005 213.752, 43.570 209.859, 41.212 208.054 C 38.854 206.249, 36.089 203.136, 35.069 201.136 C 34.048 199.136, 32.238 196.618, 31.046 195.540 C 28.592 193.321, 23 182.407, 23 179.837 C 23 178.907, 21.620 174.400, 19.932 169.822 C 13.005 151.028, 11.656 138.506, 14.112 115.789 C 15.419 103.698, 18.210 95.999, 25.123 85.409 C 30.056 77.853, 37.587 69, 39.083 69 C 39.539 69, 42.294 67.591, 45.206 65.868 C 48.118 64.146, 52.750 61.944, 55.500 60.975 C 58.250 60.006, 63.588 57.811, 67.362 56.098 C 71.135 54.385, 77.435 52.515, 81.362 51.943 C 90.046 50.677, 92.729 49.425, 94.628 45.752 C 96.013 43.073, 95.938 42.784, 93.120 39.966 C 90.436 37.282, 89.532 37, 83.605 37 C 78.957 37, 75.525 37.670, 71.779 39.308 C 68.875 40.577, 63.828 42.204, 60.561 42.922 C 55.130 44.116, 39.985 51.379, 32.390 56.431 C 24.046 61.982, 7.694 90.384, 4.428 105 C 2.341 114.339, 1.007 139.246, 2.113 148.237 C 4.743 169.614, 7.224 179.265, 12.449 188.435 C 13.722 190.671, 15.567 195.127, 16.547 198.337 C 17.540 201.591, 19.569 205.415, 21.129 206.976 C 23.918 209.764, 23.927 209.819, 23.327 219.678 C 22.811 228.135, 22.968 229.825, 24.398 231.255 C 25.319 232.176, 26.791 234.633, 27.670 236.715 C 29.231 240.416, 29.290 240.448, 30.320 238.174 C 31.598 235.352, 29.655 226.946, 27.438 225.706 C 25.704 224.735, 25.390 215, 27.094 215 C 27.695 215, 28.425 215.909, 28.716 217.021 C 29.139 218.641, 29.527 218.808, 30.667 217.862 C 31.808 216.914, 32.821 217.373, 35.795 220.185 C 39.726 223.904, 45.188 227.456, 51.075 230.125 C 53.046 231.018, 55.840 232.931, 57.284 234.375 C 59.079 236.170, 60.975 237, 63.280 237 C 69.199 237, 70.870 239.955, 71.209 251.021 C 71.598 263.713, 73.500 263.056, 73.500 250.230 C 73.500 241.057, 73.622 240.483, 75.635 240.196 C 76.962 240.006, 78.498 240.818, 79.696 242.341 C 81.212 244.268, 82.004 244.577, 83.407 243.792 C 86.140 242.263, 96.119 243.824, 98.660 246.178 L 100.820 248.180 102.910 246.090 C 105.365 243.635, 108.252 243.394, 110 245.500 C 111.848 247.726, 113.927 247.321, 114.989 244.528 C 115.540 243.081, 116.981 241.837, 118.465 241.528 C 119.859 241.238, 122.237 240.745, 123.750 240.433 C 131.757 238.784, 140.523 234.267, 147.353 228.274 C 162.835 214.686, 180 193.460, 180 187.904 C 180 187.269, 181.075 184.219, 182.389 181.125 C 183.703 178.031, 185.550 172.575, 186.493 169 C 187.436 165.425, 188.814 160.925, 189.554 159 C 193.511 148.710, 193.740 139.074, 190.728 109.500 C 189.641 98.826, 188.832 95.218, 186.202 89.332 C 184.441 85.390, 183 80.985, 183 79.543 C 183 75.237, 179.522 69.698, 171.132 60.642 C 166.769 55.934, 161.468 49.933, 159.350 47.307 C 147.344 32.418, 143.088 28.638, 134.135 24.918 C 129.936 23.172, 123.134 19.777, 119.021 17.372 C 114.907 14.967, 111.098 13, 110.556 13 C 110.014 13, 105.740 11.129, 101.058 8.841 C 93.872 5.331, 91.120 4.552, 83.400 3.842 C 78.370 3.380, 72.341 2.326, 70.002 1.501 C 64.849 -0.317, 65.467 -0.324, 63.571 1.571 M 122.500 96.232 C 115.592 97.553, 113 98.702, 113 100.443 C 113 101.261, 113.922 102.423, 115.048 103.026 C 116.174 103.628, 117.513 105.219, 118.023 106.561 C 118.756 108.487, 119.666 109, 122.355 109 C 125.610 109, 125.941 109.357, 129.880 117.120 C 132.146 121.586, 134.029 125.973, 134.063 126.870 C 134.106 127.976, 134.417 127.777, 135.031 126.250 C 136.152 123.461, 138 123.306, 138 126 C 138 127.100, 138.450 128, 139 128 C 139.550 128, 140 126.961, 140 125.691 C 140 122.722, 142.357 119.485, 143.848 120.406 C 144.502 120.810, 145.070 124.010, 145.162 127.809 L 145.323 134.500 145.912 127.297 C 146.533 119.687, 147.619 117.587, 150.632 118.168 C 152.739 118.573, 152.668 118.256, 153.536 131.250 C 153.894 136.613, 154.533 141, 154.955 141 C 156.265 141, 157.113 126.543, 156.376 116.785 C 155.725 108.150, 155.463 107.301, 152.638 104.662 C 150.967 103.101, 146.551 100.288, 142.825 98.412 C 135.606 94.776, 132.085 94.399, 122.500 96.232 M 69.305 98.393 C 59.379 101.770, 54.579 107.709, 49.558 122.826 C 47.897 127.826, 47.901 128.242, 49.661 132.533 C 51.403 136.779, 51.526 136.874, 52 134.340 C 52.839 129.852, 55 130.267, 55 134.917 C 55 137.880, 54.588 139, 53.500 139 C 51.496 139, 51.456 146.779, 53.445 149.619 C 54.240 150.753, 55.028 154.306, 55.195 157.512 C 55.400 161.436, 55.962 163.494, 56.912 163.808 C 58.106 164.203, 58.225 161.863, 57.680 148.663 C 57.058 133.587, 57.107 133.013, 59.096 131.949 C 62.182 130.297, 64 131.498, 64 135.189 C 64 139.687, 66.261 149, 67.352 149 C 67.846 149, 67.957 147.537, 67.598 145.750 C 65.960 137.578, 65.777 135, 66.837 135 C 68.440 135, 70 138.421, 70 141.934 C 70 143.620, 70.366 145, 70.812 145 C 71.259 145, 71.703 141.342, 71.798 136.870 C 71.893 132.399, 72.398 128.225, 72.921 127.595 C 73.444 126.965, 74.186 123.986, 74.570 120.975 C 75.501 113.675, 76.036 112.834, 82.474 108.561 C 88.297 104.696, 89.266 102.435, 86.250 99.754 C 84.704 98.380, 77.326 95.785, 76 96.148 C 75.725 96.224, 72.712 97.234, 69.305 98.393 M 132.455 133.455 C 132.072 136.005, 132.005 138.338, 132.305 138.638 C 132.605 138.938, 133.163 137.096, 133.545 134.545 C 133.928 131.995, 133.995 129.662, 133.695 129.362 C 133.395 129.062, 132.837 130.904, 132.455 133.455 M 146.310 142.500 C 146.315 145.800, 146.502 147.029, 146.725 145.232 C 146.947 143.435, 146.943 140.735, 146.715 139.232 C 146.486 137.729, 146.304 139.200, 146.310 142.500 M 132.141 144 C 132.141 145.375, 132.527 147.400, 133 148.500 C 133.783 150.323, 133.859 150.279, 133.859 148 C 133.859 146.625, 133.473 144.600, 133 143.500 C 132.217 141.677, 132.141 141.721, 132.141 144 M 136.667 148.165 C 136.331 149.449, 136.010 150.714, 135.953 150.975 C 135.896 151.236, 136.276 151.592, 136.798 151.766 C 138.038 152.179, 138.967 148.565, 138.016 147.026 C 137.531 146.240, 137.068 146.631, 136.667 148.165 M 134.320 172.644 C 128.301 179.962, 122.797 185.052, 119 186.813 C 116.090 188.163, 112.177 188.402, 95.791 188.232 L 76.082 188.028 69.444 184.506 C 65.793 182.570, 60.487 178.949, 57.653 176.460 C 50.765 170.411, 47.640 170.538, 47.186 176.886 C 47.013 179.298, 47.351 181.751, 47.936 182.336 C 48.521 182.921, 49 184.140, 49 185.045 C 49 185.950, 49.893 187.498, 50.984 188.485 C 54.446 191.619, 59 200.749, 59 204.558 C 59 207.428, 59.348 208.080, 60.739 207.812 C 61.695 207.628, 62.643 206.582, 62.846 205.489 C 63.498 201.977, 64.892 200.994, 67.523 202.192 C 69.122 202.921, 69.992 204.261, 70.197 206.309 C 70.591 210.261, 72.708 210.899, 74.015 207.461 C 74.949 205.005, 75.336 204.836, 78.271 205.607 C 83.727 207.042, 106.137 206.807, 106.712 205.309 C 107.710 202.707, 121.516 201.183, 123.760 203.426 C 124.121 203.788, 124.661 206.105, 124.959 208.575 C 125.642 214.242, 127.327 214.746, 128.055 209.500 C 128.360 207.300, 129.147 204.517, 129.805 203.316 C 130.462 202.114, 131 200.069, 131 198.772 C 131 197.388, 132.707 194.581, 135.125 191.988 C 143.936 182.539, 146.592 175.293, 142.944 170.655 C 141.795 169.195, 140.244 168, 139.497 168 C 138.750 168, 136.421 170.090, 134.320 172.644" stroke="none" fill="#000000" fill-rule="evenodd"/>
</svg>